<svg width="69" height="69" viewBox="0 0 69 69" fill="none" xmlns="http://www.w3.org/2000/svg">
<path fill-rule="evenodd" clip-rule="evenodd" d="M34.5 69C53.5538 69 69 53.5538 69 34.5C69 15.4462 53.5538 0 34.5 0C15.4462 0 0 15.4462 0 34.5C0 53.5538 15.4462 69 34.5 69Z" fill="#5454D4" fill-opacity="0.1"/>
<path d="M31 36C30.34 36.33 29.79 36.82 29.38 37.43C29.15 37.78 29.15 38.22 29.38 38.57C29.79 39.18 30.34 39.67 31 40" stroke="#292D32" stroke-width="1.5" stroke-linecap="round" stroke-linejoin="round"/>
<path d="M37.21 36C37.87 36.33 38.42 36.82 38.83 37.43C39.06 37.78 39.06 38.22 38.83 38.57C38.42 39.18 37.87 39.67 37.21 40" stroke="#292D32" stroke-width="1.5" stroke-linecap="round" stroke-linejoin="round"/>
<path d="M31 45H37C42 45 44 43 44 38V32C44 27 42 25 37 25H31C26 25 24 27 24 32V38C24 43 26 45 31 45Z" stroke="#292D32" stroke-width="1.5" stroke-linecap="round" stroke-linejoin="round"/>
<path d="M24.23 31.01L43.45 31" stroke="#292D32" stroke-width="1.5" stroke-linecap="round" stroke-linejoin="round"/>
</svg>
