<svg width="69" height="69" viewBox="0 0 69 69" fill="none" xmlns="http://www.w3.org/2000/svg">
<path fill-rule="evenodd" clip-rule="evenodd" d="M34.5 69C53.5538 69 69 53.5538 69 34.5C69 15.4462 53.5538 0 34.5 0C15.4462 0 0 15.4462 0 34.5C0 53.5538 15.4462 69 34.5 69Z" fill="#F04037" fill-opacity="0.1"/>
<path d="M45 38V32C45 27 43 25 38 25H32C27 25 25 27 25 32V38C25 43 27 45 32 45H38C43 45 45 43 45 38Z" stroke="#292D32" stroke-width="1.5" stroke-linecap="round" stroke-linejoin="round"/>
<path d="M25.52 30.1101H44.48" stroke="#292D32" stroke-width="1.5" stroke-linecap="round" stroke-linejoin="round"/>
<path d="M31.52 25.1101V29.9701" stroke="#292D32" stroke-width="1.5" stroke-linecap="round" stroke-linejoin="round"/>
<path d="M38.48 25.1101V29.5201" stroke="#292D32" stroke-width="1.5" stroke-linecap="round" stroke-linejoin="round"/>
<path d="M32.75 37.4501V36.2501C32.75 34.7101 33.84 34.0801 35.17 34.8501L36.21 35.4501L37.25 36.0501C38.58 36.8201 38.58 38.0801 37.25 38.8501L36.21 39.4501L35.17 40.0501C33.84 40.8201 32.75 40.1901 32.75 38.6501V37.4501V37.4501Z" stroke="#292D32" stroke-width="1.5" stroke-miterlimit="10" stroke-linecap="round" stroke-linejoin="round"/>
</svg>
