<svg width="69" height="69" viewBox="0 0 69 69" fill="none" xmlns="http://www.w3.org/2000/svg">
<path fill-rule="evenodd" clip-rule="evenodd" d="M34.5 69C53.5538 69 69 53.5538 69 34.5C69 15.4462 53.5538 0 34.5 0C15.4462 0 0 15.4462 0 34.5C0 53.5538 15.4462 69 34.5 69Z" fill="#FEDC5A" fill-opacity="0.1"/>
<path d="M47.6254 29.7584L47.6255 29.7585C47.6756 29.8085 47.7109 29.8715 47.7275 29.9404C47.744 30.0093 47.7411 30.0814 47.7191 30.1488C47.6971 30.2161 47.6568 30.2761 47.6028 30.3219C47.5488 30.3678 47.4832 30.3978 47.4131 30.4086L47.4128 30.4087L45.7935 30.6613L39.3374 24.2052L39.5706 22.5718C39.5807 22.5014 39.6102 22.4352 39.6558 22.3806C39.7014 22.326 39.7612 22.2852 39.8287 22.2627C39.8962 22.2402 39.9686 22.2369 40.0378 22.2531C40.107 22.2694 40.1704 22.3047 40.2207 22.3549L47.6254 29.7584ZM26.6524 44.5171C30.7524 40.9233 35.4239 39.7289 40.5495 38.4184C40.7525 38.3665 40.9562 38.3144 41.1607 38.262L41.2945 38.2277L41.3098 38.0903L41.8301 33.4027L41.8407 33.3071L41.7727 33.2392L36.7596 28.226L36.6916 28.158L36.5961 28.1687L31.9084 28.689L31.7711 28.7042L31.7367 28.8381C31.6844 29.042 31.6325 29.2453 31.5807 29.4478C30.27 34.5739 29.0757 39.2449 25.4816 43.3463L24.1348 42.0005C27.3588 38.1709 28.6004 33.9122 30.2128 26.9336L37.401 26.135L43.8649 32.5989L43.0664 39.7871C36.0878 41.4007 31.828 42.6411 27.9994 45.8651L26.6524 44.5171ZM32.6644 37.3282L32.6334 37.2988C32.4441 37.1084 32.2924 36.8839 32.1863 36.6369C32.0745 36.3767 32.0157 36.0967 32.0132 35.8135C32.0108 35.5302 32.0647 35.2493 32.172 34.9871C32.2793 34.7249 32.4377 34.4867 32.638 34.2864C32.8383 34.0861 33.0765 33.9277 33.3387 33.8205C33.6008 33.7132 33.8817 33.6592 34.165 33.6617C34.4483 33.6641 34.7282 33.723 34.9885 33.8348C35.2485 33.9465 35.4837 34.1088 35.6804 34.3123C36.0633 34.7155 36.2737 35.2523 36.2666 35.8083C36.2596 36.3646 36.0356 36.8961 35.6422 37.2896C35.2489 37.6831 34.7175 37.9073 34.1612 37.9145C33.6049 37.9217 33.0678 37.7114 32.6644 37.3282Z" fill="#292D32" stroke="#FAF7EB" stroke-width="0.4"/>
</svg>
