<svg width="69" height="69" viewBox="0 0 69 69" fill="none" xmlns="http://www.w3.org/2000/svg">
<path fill-rule="evenodd" clip-rule="evenodd" d="M34.5 69C53.5539 69 69 53.5538 69 34.5C69 15.4462 53.5539 0 34.5 0C15.4462 0 3.05176e-05 15.4462 3.05176e-05 34.5C3.05176e-05 53.5538 15.4462 69 34.5 69Z" fill="#FEDC5A" fill-opacity="0.1"/>
<path d="M40.4 42.25H29.6C28.1 42.25 27.5 41.61 27.5 40.02V38.98C27.5 37.39 28.1 36.75 29.6 36.75H40.4C41.9 36.75 42.5 37.39 42.5 38.98V40.02C42.5 41.61 41.9 42.25 40.4 42.25Z" stroke="#292D32" stroke-width="1.5" stroke-linecap="round" stroke-linejoin="round"/>
<path d="M38.4 33.75H31.6C30.1 33.75 29.5 33.11 29.5 31.52V30.48C29.5 28.89 30.1 28.25 31.6 28.25H38.4C39.9 28.25 40.5 28.89 40.5 30.48V31.52C40.5 33.11 39.9 33.75 38.4 33.75Z" stroke="#292D32" stroke-width="1.5" stroke-linecap="round" stroke-linejoin="round"/>
<path d="M35 45.0001V42.6001" stroke="#292D32" stroke-width="1.5" stroke-linecap="round" stroke-linejoin="round"/>
<path d="M35 36V34" stroke="#292D32" stroke-width="1.5" stroke-linecap="round" stroke-linejoin="round"/>
<path d="M35 25V27.69" stroke="#292D32" stroke-width="1.5" stroke-linecap="round" stroke-linejoin="round"/>
</svg>
