<svg width="69" height="69" viewBox="0 0 69 69" fill="none" xmlns="http://www.w3.org/2000/svg">
<path fill-rule="evenodd" clip-rule="evenodd" d="M34.5 69C53.5538 69 69 53.5538 69 34.5C69 15.4462 53.5538 0 34.5 0C15.4462 0 0 15.4462 0 34.5C0 53.5538 15.4462 69 34.5 69Z" fill="#F04037" fill-opacity="0.1"/>
<path d="M36.01 25.9201L41.91 28.5401C43.61 29.2901 43.61 30.5301 41.91 31.2801L36.01 33.9001C35.34 34.2001 34.24 34.2001 33.57 33.9001L27.67 31.2801C25.97 30.5301 25.97 29.2901 27.67 28.5401L33.57 25.9201C34.24 25.6201 35.34 25.6201 36.01 25.9201Z" stroke="#292D32" stroke-width="1.5" stroke-linecap="round" stroke-linejoin="round"/>
<path d="M26 34C26 34.84 26.63 35.81 27.4 36.15L34.19 39.17C34.71 39.4 35.3 39.4 35.81 39.17L42.6 36.15C43.37 35.81 44 34.84 44 34" stroke="#292D32" stroke-width="1.5" stroke-linecap="round" stroke-linejoin="round"/>
<path d="M26 39C26 39.93 26.55 40.77 27.4 41.15L34.19 44.17C34.71 44.4 35.3 44.4 35.81 44.17L42.6 41.15C43.45 40.77 44 39.93 44 39" stroke="#292D32" stroke-width="1.5" stroke-linecap="round" stroke-linejoin="round"/>
</svg>
