<svg width="69" height="69" viewBox="0 0 69 69" fill="none" xmlns="http://www.w3.org/2000/svg">
<path fill-rule="evenodd" clip-rule="evenodd" d="M34.5 69C53.5538 69 69 53.5538 69 34.5C69 15.4462 53.5538 0 34.5 0C15.4462 0 0 15.4462 0 34.5C0 53.5538 15.4462 69 34.5 69Z" fill="#5454D4" fill-opacity="0.1"/>
<path d="M29.76 45H40.24C43 45 44.1 43.31 44.23 41.25L44.75 32.99C44.89 30.83 43.17 29 41 29C40.39 29 39.83 28.65 39.55 28.11L38.83 26.66C38.37 25.75 37.17 25 36.15 25H33.86C32.83 25 31.63 25.75 31.17 26.66L30.45 28.11C30.17 28.65 29.61 29 29 29C26.83 29 25.11 30.83 25.25 32.99L25.77 41.25C25.89 43.31 27 45 29.76 45Z" stroke="#292D32" stroke-width="1.5" stroke-linecap="round" stroke-linejoin="round"/>
<path d="M33.5 31H36.5" stroke="#292D32" stroke-width="1.5" stroke-linecap="round" stroke-linejoin="round"/>
<path d="M35 41C36.79 41 38.25 39.54 38.25 37.75C38.25 35.96 36.79 34.5 35 34.5C33.21 34.5 31.75 35.96 31.75 37.75C31.75 39.54 33.21 41 35 41Z" stroke="#292D32" stroke-width="1.5" stroke-linecap="round" stroke-linejoin="round"/>
</svg>
