<?xml version="1.0" encoding="utf-8"?>
<!-- Generator: Adobe Illustrator 24.3.0, SVG Export Plug-In . SVG Version: 6.00 Build 0)  -->
<svg version="1.1" id="Layer_1" xmlns="http://www.w3.org/2000/svg" xmlns:xlink="http://www.w3.org/1999/xlink" x="0px" y="0px"
	 viewBox="0 0 401.11 401.11" style="enable-background:new 0 0 401.11 401.11;" xml:space="preserve">
<style type="text/css">
	.st0{fill:#26658C;}
	.st1{fill:#A8DEE8;}
	.st2{fill:#FFFFFF;}
	.st3{fill:#0088CE;}
	.st4{fill:#00ABB9;}
	.st5{fill:#002F65;}
	.st6{fill:#EFF0F0;}
	.st7{fill:#0F6DBF;}
</style>
<rect width="402.28" height="402.28"/>
<g>
	<g>
		<path class="st2" d="M269.65,290.24V123.41h-11.26h-30.67c0.85,0.45,1.7,0.88,2.53,1.36c11.74,6.8,21.24,16.69,28.5,29.66
			c7.26,12.98,10.89,28.27,10.89,45.89s-3.64,32.99-10.89,46.12c-7.26,13.14-16.76,23.1-28.5,29.9c-11.75,6.8-24.41,10.2-38.01,10.2
			c-13.29,0-25.89-3.48-37.78-10.43c-11.9-6.95-21.48-17.07-28.74-30.36c-7.26-13.28-10.89-28.74-10.89-46.35
			s3.63-32.83,10.89-45.65c7.26-12.82,16.76-22.55,28.51-29.2c11.74-6.64,24.41-9.96,38.01-9.96c10.78,0,20.96,2.18,30.58,6.45
			l25.97-26.61l6.18-6.39c-3.9-2.67-8.04-5.19-12.47-7.52c-14.99-7.88-32.52-11.82-52.61-11.82c-22.25,0-42.57,5.49-60.95,16.45
			c-18.38,10.97-32.91,26.35-43.57,46.12c-10.66,19.78-15.99,42.49-15.99,68.13c0,25.65,5.33,48.59,15.99,68.83
			c10.66,20.24,25.1,36,43.34,47.27c18.22,11.28,38.31,16.92,60.25,16.92c19.77,0,37.38-4.02,52.84-12.05
			c10.91-5.67,20.16-12.37,27.84-20.05V290.24z"/>
	</g>
	<polygon class="st2" points="280.7,72.86 259.85,94.42 238.99,115.97 278.42,115.97 278.42,290.24 278.42,328.25 331.72,328.25 
		331.72,72.86 	"/>
</g>
</svg>
