<svg width="283" height="107" viewBox="0 0 283 107" fill="none" xmlns="http://www.w3.org/2000/svg">
<g clip-path="url(#clip0_63_11301)">
<rect width="282.3" height="106.4" fill="white"/>
<path d="M38.4 42.8H24.5V105.2H8.9V42.8H0V30.1H8.9V24.8C8.9 16.2 11.2 9.9 15.8 5.9C20.3 2 27.5 0 37.3 0V12.9C32.6 12.9 29.3 13.8 27.4 15.6C25.5 17.4 24.5 20.4 24.5 24.8V30.1H38.4V42.8Z" fill="white"/>
<path d="M73 32.1C76.8 30 81.2 28.9 86.4 28.9V45H82.4C76.3 45 71.7 46.5 68.6 49.6C65.5 52.7 64 58 64 65.7V105.2H48.5V30.2H64V41C66.2 37.2 69.3 34.2 73 32.1Z" fill="white"/>
<path d="M192.4 92.5H226.5V105.1H174.4V92.5L208.6 42.8H174.4V30.1H226.5V42.8L192.4 92.5Z" fill="white"/>
<path d="M239.6 17.2999C237.7 15.3999 236.7 13 236.7 10.2C236.7 7.39995 237.7 4.99995 239.6 3.09995C241.5 1.19995 243.9 0.199951 246.7 0.199951C249.4 0.199951 251.7 1.19995 253.6 3.09995C255.5 4.99995 256.5 7.39995 256.5 10.2C256.5 13 255.5 15.3999 253.6 17.2999C251.7 19.1999 249.4 20.2 246.7 20.2C243.8 20.2 241.5 19.1999 239.6 17.2999ZM254.3 105.1H238.8V30.1H254.3V105.1Z" fill="white"/>
<path d="M282.2 4.40002H266.7V105.2H282.2V4.40002Z" fill="white"/>
<path d="M147 94V45H143.7H134.7C134.9 45.1 135.2 45.3 135.4 45.4C138.9 47.4 141.6 50.3 143.8 54.1C145.9 57.9 147 62.4 147 67.6C147 72.8 145.9 77.3 143.8 81.2C141.7 85.1 138.9 88 135.4 90C131.9 92 128.2 93 124.2 93C120.3 93 116.6 92 113.1 89.9C109.6 87.9 106.8 84.9 104.7 81C102.6 77.1 101.5 72.6 101.5 67.4C101.5 62.2 102.6 57.8 104.7 54C106.8 50.2 109.6 47.4 113.1 45.4C116.5 43.4 120.3 42.5 124.3 42.5C127.5 42.5 130.5 43.1 133.3 44.4L140.9 36.6L142.7 34.7C141.6 33.9 140.3 33.2 139 32.5C134.6 30.2 129.4 29 123.5 29C117 29 111 30.6 105.6 33.8C100.2 37 95.9001 41.5 92.8001 47.4C89.7001 53.2 88.1001 59.9 88.1001 67.4C88.1001 74.9 89.7001 81.7 92.8001 87.6C95.9001 93.5 100.2 98.2 105.5 101.5C110.9 104.8 116.8 106.5 123.2 106.5C129 106.5 134.2 105.3 138.7 103C141.9 101.3 144.6 99.4 146.9 97.1V94H147Z" fill="white"/>
<path d="M150.3 30.1L144.1 36.4L138 42.8H149.6V94V105.2H165.2V30.1H150.3Z" fill="white"/>
</g>
<defs>
<clipPath id="clip0_63_11301">
<rect width="282.3" height="106.4" fill="white"/>
</clipPath>
</defs>
</svg>
