<svg width="140" height="53" viewBox="0 0 140 53" fill="none" xmlns="http://www.w3.org/2000/svg">
<path d="M19.0503 21.2332H12.1545V52.1899H4.41531V21.2332H0V14.9327H4.41531V12.3033C4.41531 8.03685 5.55634 4.91141 7.83841 2.927C10.0709 0.992204 13.6428 0 18.5046 0V6.39972C16.1729 6.39972 14.5358 6.84621 13.5932 7.73919C12.6506 8.63218 12.1545 10.1205 12.1545 12.3033V14.9327H19.0503V21.2332Z" fill="#AADEE8"/>
<path d="M36.2154 15.9249C38.1006 14.8831 40.2835 14.3374 42.8632 14.3374V22.3246H40.8788C37.8526 22.3246 35.5705 23.0688 34.0326 24.6067C32.4947 26.1446 31.7505 28.774 31.7505 32.594V52.19H24.0609V14.9823H31.7505V20.3402C32.842 18.4551 34.3799 16.9667 36.2154 15.9249Z" fill="#AADEE8"/>
<path d="M95.45 45.8894H112.367V52.1403H86.5202V45.8894L103.487 21.2331H86.5202V14.9326H112.367V21.2331L95.45 45.8894Z" fill="#AADEE8"/>
<path d="M118.866 8.58247C117.923 7.63987 117.427 6.44923 117.427 5.06014C117.427 3.67106 117.923 2.48041 118.866 1.53782C119.809 0.595223 120.999 0.0991211 122.388 0.0991211C123.728 0.0991211 124.869 0.595223 125.811 1.53782C126.754 2.48041 127.25 3.67106 127.25 5.06014C127.25 6.44923 126.754 7.63987 125.811 8.58247C124.869 9.52506 123.728 10.0212 122.388 10.0212C120.95 10.0212 119.809 9.52506 118.866 8.58247ZM126.159 52.1402H118.469V14.9326H126.159V52.1402Z" fill="#AADEE8"/>
<path d="M140 2.18262H132.31V52.1897H140V2.18262Z" fill="#AADEE8"/>
<path d="M72.9271 46.6334V22.3244H71.2899H66.825C66.9242 22.374 67.073 22.4732 67.1723 22.5228C68.9086 23.515 70.2481 24.9537 71.3395 26.8389C72.3813 28.7241 72.9271 30.9565 72.9271 33.5363C72.9271 36.116 72.3813 38.3484 71.3395 40.2832C70.2977 42.218 68.9086 43.6567 67.1723 44.6489C65.4359 45.6412 63.6003 46.1373 61.6159 46.1373C59.6811 46.1373 57.8455 45.6412 56.1092 44.5993C54.3728 43.6071 52.9837 42.1188 51.9419 40.184C50.9001 38.2492 50.3544 36.0168 50.3544 33.437C50.3544 30.8573 50.9001 28.6745 51.9419 26.7893C52.9837 24.9041 54.3728 23.515 56.1092 22.5228C57.7959 21.5306 59.6811 21.0841 61.6655 21.0841C63.2531 21.0841 64.7414 21.3818 66.1305 22.0267L69.9008 18.1571L70.7938 17.2145C70.2481 16.8176 69.6032 16.4703 68.9582 16.1231C66.7754 14.982 64.1957 14.3867 61.2687 14.3867C58.044 14.3867 55.0674 15.1805 52.3884 16.768C49.7095 18.3555 47.5762 20.588 46.0383 23.515C44.5004 26.3924 43.7066 29.7163 43.7066 33.437C43.7066 37.1578 44.5004 40.5313 46.0383 43.4583C47.5762 46.3853 49.7095 48.717 52.3388 50.3541C55.0178 51.9913 57.9448 52.8346 61.1198 52.8346C63.9972 52.8346 66.5769 52.2393 68.8094 51.0983C70.3969 50.2549 71.7364 49.3123 72.8774 48.1713V46.6334H72.9271Z" fill="#AADEE8"/>
<path d="M74.5642 14.9326L71.4883 18.0581L68.4621 21.2331H74.2169V46.6335V52.1899H81.9561V14.9326H74.5642Z" fill="#AADEE8"/>
</svg>
