<svg width="50" height="50" viewBox="0 0 50 50" fill="none" xmlns="http://www.w3.org/2000/svg">
<g clip-path="url(#clip0_52_13660)">
<path d="M0.437402 25.0828L4.30791 27.3174C4.69609 27.5415 5.16787 27.4597 5.46055 27.164L8.35176 28.8332C7.75576 30.7266 9.06504 32.6693 11.0339 32.8408C10.6 34.4701 11.5549 36.1736 13.2196 36.6197C13.6674 36.7397 14.1378 36.7606 14.602 36.6711C14.4243 38.4883 15.8568 40.0562 17.6812 40.0562C18.2426 40.0562 18.7792 39.9011 19.221 39.6427C19.3085 41.2663 20.6547 42.5601 22.3104 42.5601C22.8342 42.5601 23.3646 42.427 23.8499 42.1468C24.5171 41.7617 24.5834 41.7293 24.753 41.6069L26.4783 42.603C27.2095 43.0251 28.0958 43.1347 28.9098 42.9083C30.3169 42.517 31.2015 41.2459 31.1523 39.8574C32.6232 40.659 34.5458 40.178 35.3817 38.6644C35.6674 38.1472 35.787 37.5792 35.7583 37.024C36.3854 37.2584 37.0618 37.2831 37.7089 37.089C39.3737 36.589 40.3442 34.7613 39.693 33.0283C40.5409 32.8633 41.3162 32.3464 41.781 31.5413C41.7883 31.5286 41.7952 31.5158 41.8018 31.5027C42.2453 30.6157 42.2281 29.5882 41.8408 28.7219L44.5393 27.164C44.8328 27.4606 45.3048 27.541 45.6918 27.3175L49.5622 25.0829C49.8321 24.9272 49.9998 24.6369 49.9998 24.3252V7.85199C49.9998 7.18012 49.2702 6.75824 48.6876 7.09438L37.6839 13.4474C37.2923 13.6735 37.1318 14.1252 37.2404 14.5223L34.3232 16.2066C34.0873 16.3429 33.9317 16.5656 33.8732 16.812C32.8916 17.3687 31.6778 17.3648 30.6995 16.7999L27.4689 14.9348C26.0136 14.0946 24.2054 14.0945 22.7499 14.9348L18.3223 17.4911C17.5531 17.4403 16.8297 17.2174 16.1263 16.8121C16.0679 16.5658 15.9122 16.3429 15.6761 16.2065L12.759 14.5223C12.8674 14.126 12.7078 13.6738 12.3156 13.4474L8.97744 11.5202C8.62715 11.3178 8.1792 11.4379 7.97695 11.7882C7.77471 12.1385 7.89473 12.5865 8.24502 12.7887L11.1396 14.4599L4.59697 25.7928L1.46484 23.9845V8.87397L5.22324 11.0439C5.57344 11.2461 6.02148 11.1261 6.22373 10.7758C6.42598 10.4255 6.30596 9.97758 5.95566 9.77533L1.31211 7.09428C0.730273 6.75854 0 7.17953 0 7.85199V24.3252C0 24.6369 0.167676 24.9272 0.437402 25.0828ZM9.89082 30.5761C9.44297 29.8003 9.70977 28.8048 10.4854 28.357L12.581 27.1471C13.3567 26.6992 14.3522 26.9661 14.8001 27.7417C15.2479 28.5174 14.9812 29.513 14.2055 29.9609C12.2295 31.1017 14.1112 30.0153 12.11 31.1707C11.3343 31.6185 10.3388 31.3519 9.89082 30.5761ZM13.5988 35.2048C12.7316 34.9725 12.2177 34.0826 12.4501 33.2152C12.5624 32.796 12.8313 32.4457 13.207 32.2287C14.0608 31.7358 13.7332 31.9249 14.4537 31.509C15.2293 31.0626 16.2234 31.3297 16.6709 32.1047C17.1188 32.8804 16.852 33.876 16.0763 34.3239L14.8314 35.0425C14.4558 35.2594 14.0179 35.3171 13.5988 35.2048ZM16.2692 37.7798C15.8214 37.0041 16.0882 36.0085 16.8639 35.5607L17.9872 34.9121C18.3636 34.6949 18.8014 34.6377 19.2199 34.7498C20.0872 34.9823 20.6011 35.8721 20.3687 36.7395C20.2596 37.1465 19.9976 37.5032 19.6117 37.7259L18.4884 38.3745C17.7126 38.8224 16.7172 38.5555 16.2692 37.7798ZM23.7549 40.5105L23.1176 40.8784C22.3418 41.3261 21.3463 41.0595 20.8984 40.2838C20.4491 39.5056 20.7198 38.5112 21.4931 38.0647L22.1304 37.6967C22.911 37.2459 23.9045 37.5206 24.3495 38.2913C24.7974 39.067 24.5306 40.0625 23.7549 40.5105ZM37.946 15.8066L41.1799 21.4077C41.3822 21.7579 41.8302 21.8781 42.1804 21.6757C42.5307 21.4735 42.6507 21.0255 42.4484 20.6752L38.86 14.4599L48.5352 8.87397V23.9845L45.403 25.7928L44.1911 23.6937C43.9889 23.3433 43.5409 23.2233 43.1906 23.4256C42.8403 23.6279 42.7203 24.0758 42.9226 24.4261L43.7799 25.9111L41.3335 27.3235L35.4996 17.2189L37.946 15.8066ZM16.8838 18.7184C15.746 20.4947 16.6758 22.8352 18.6825 23.3729C19.4796 23.5865 20.3122 23.4769 21.0267 23.0643L25.5913 20.4296C25.6508 20.3953 25.7246 20.3954 25.784 20.4296L28.0701 21.7495C28.4202 21.9518 28.8684 21.8317 29.0706 21.4815C29.2729 21.1312 29.1528 20.6832 28.8025 20.481L26.5165 19.1612C26.0054 18.866 25.3702 18.8661 24.8591 19.1611L20.2944 21.7957C19.5186 22.2437 18.5231 21.9768 18.0753 21.2011C17.6274 20.4254 17.8942 19.4299 18.6699 18.982C28.7914 13.1384 18.8457 18.8804 23.4826 16.2034C24.4862 15.624 25.7331 15.6239 26.7368 16.2034L29.9674 18.0685C31.3221 18.8507 32.9866 18.8955 34.3764 18.2031L39.1359 26.447L31.8538 22.2427C31.5035 22.0404 31.0555 22.1605 30.8533 22.5108C30.6511 22.8611 30.7711 23.309 31.1214 23.5113L39.7918 28.5171C40.5701 28.9664 40.8918 30.0202 40.5015 30.8281C40.0485 31.5892 39.063 31.848 38.2935 31.4037C38.1812 31.3289 39.1694 31.9095 33.0654 28.3853C32.7151 28.1829 32.2672 28.303 32.0649 28.6534C31.8627 29.0036 31.9827 29.4516 32.333 29.6538C32.3849 29.6838 37.5625 32.6731 37.6328 32.7137C38.349 33.1272 38.6417 34.1015 38.2681 34.8488C37.8419 35.7009 36.8339 36.004 36.0083 35.5275L34.223 34.4968C34.2227 34.4966 34.2223 34.4963 34.2219 34.4961L30.7084 32.4676C30.358 32.2652 29.9102 32.3854 29.7079 32.7357C29.5057 33.086 29.6257 33.5339 29.976 33.7362L33.4895 35.7647C34.2507 36.2041 34.5244 37.1873 34.0997 37.9563C33.6592 38.7537 32.6081 39.0076 31.819 38.552C31.6997 38.483 28.394 36.5744 28.3516 36.55C28.0012 36.3477 27.5532 36.4678 27.3511 36.8181C27.1488 37.1684 27.2688 37.6163 27.6191 37.8186L28.8814 38.5474C29.665 39.0083 29.9056 39.9894 29.4917 40.739C29.045 41.5476 27.9887 41.7835 27.211 41.3346L25.7127 40.4696C26.1521 39.5752 26.1527 38.4849 25.6183 37.559C24.8584 36.2428 23.2695 35.6973 21.8881 36.1997C21.8206 34.3987 20.189 32.9797 18.3329 33.2636C18.503 31.7733 17.5777 30.3833 16.1445 29.9575C16.6024 29.0563 16.6108 27.9483 16.0688 27.0095C15.217 25.5342 13.3238 25.0271 11.8486 25.8787L10.8641 26.4472L15.6211 18.2078C16.0234 18.4223 16.4473 18.5934 16.8838 18.7184ZM8.6665 27.3236L6.22012 25.9112L12.054 15.8066L14.5004 17.219L8.6665 27.3236Z" fill="white"/>
</g>
<defs>
<clipPath id="clip0_52_13660">
<rect width="50" height="50" fill="white"/>
</clipPath>
</defs>
</svg>
