<svg width="58" height="58" viewBox="0 0 58 58" fill="none" xmlns="http://www.w3.org/2000/svg">
<path d="M57.0334 52.2H54.1334V33.8334C54.133 33.2995 53.6998 32.8671 53.166 32.8674C52.851 32.8677 52.5558 33.0214 52.375 33.2795L38.8417 52.6128C38.5357 53.0503 38.6424 53.6531 39.0799 53.9589C39.2422 54.0723 39.4353 54.1333 39.6334 54.1334H52.2V57.0334C52.2 57.5672 52.6329 58 53.1667 58C53.7005 58 54.1334 57.5672 54.1334 57.0334V54.1334H57.0334C57.5672 54.1334 58 53.7005 58 53.1667C58 52.6329 57.5672 52.2 57.0334 52.2ZM52.2 52.2H41.4894L52.2 36.8996V52.2Z" fill="white"/>
<path d="M39.6334 56.0667H28.189L38.8291 43.5377C38.8533 43.5089 38.8759 43.479 38.8968 43.4478C40.8985 40.4852 40.2317 36.4741 37.3791 34.3186C33.9106 31.8264 29.0784 32.618 26.5864 36.0865C25.6413 37.4018 25.1331 38.9805 25.1334 40.6C25.1334 41.1338 25.5662 41.5667 26.1 41.5667C26.6339 41.5667 27.0667 41.1338 27.0667 40.6C27.0663 37.3967 29.6629 34.7998 32.8661 34.7994C34.0802 34.7993 35.2638 35.1801 36.25 35.8885C38.2482 37.4195 38.7136 40.2393 37.3134 42.3313L25.3634 56.4079C25.018 56.815 25.068 57.425 25.4751 57.7704C25.6497 57.9186 25.871 57.9999 26.1 58H39.6334C40.1672 58 40.6 57.5672 40.6 57.0333C40.6 56.4995 40.1672 56.0667 39.6334 56.0667Z" fill="white"/>
<path d="M26.1213 51.2517C26.1414 50.7182 25.7252 50.2694 25.1917 50.2493C25.1916 50.2493 25.1915 50.2493 25.1913 50.2493C12.58 49.7812 2.45787 39.6772 1.96717 27.0667H5.8C6.33384 27.0667 6.76667 26.6338 6.76667 26.1C6.76667 25.5662 6.33384 25.1333 5.8 25.1333H1.96717C2.45086 12.545 12.5449 2.45135 25.1333 1.96813V4.83333C25.1333 5.36718 25.5662 5.8 26.1 5.8C26.6338 5.8 27.0667 5.36718 27.0667 4.83333V1.96813C39.4828 2.44833 49.5037 12.28 50.2203 24.6848L46.4503 20.9148C46.0663 20.5438 45.4544 20.5545 45.0834 20.9385C44.7216 21.3131 44.7216 21.907 45.0834 22.2817L50.4793 27.6776C50.581 27.8006 50.7119 27.8959 50.8602 27.955C50.898 27.9664 50.9365 27.9758 50.9752 27.9831C51.0416 28.007 51.1102 28.0235 51.1802 28.0324C51.1898 28.0324 51.1985 28.0324 51.2082 28.0324C51.2179 28.0324 51.2266 28.0324 51.2353 28.0324C51.3089 28.0268 51.3816 28.0126 51.4518 27.9898C51.4916 27.985 51.5309 27.9776 51.5697 27.9676C51.7006 27.9211 51.8197 27.8465 51.9187 27.7491L57.3881 22.2817C57.7589 21.8977 57.7484 21.2858 57.3644 20.9148C56.9898 20.553 56.3959 20.553 56.0212 20.9148L52.1575 24.7757C51.4669 10.9197 40.0418 0.0339542 26.1686 0.0135333C26.1445 0.0125667 26.1242 0 26.1 0C26.0758 0 26.0555 0.0125667 26.0314 0.0135333C11.6703 0.0332292 0.0332292 11.6703 0.0135333 26.0314C0.0135333 26.0555 0 26.0758 0 26.1C0 26.1242 0.0125667 26.1445 0.0135333 26.1686C0.0375792 40.1753 11.1228 51.6608 25.1198 52.1816H25.1556C25.675 52.1815 26.1016 51.7708 26.1213 51.2517Z" fill="white"/>
<path d="M39.0872 13.1129C38.7097 12.7355 38.0978 12.7355 37.7203 13.1129L27.3325 23.4997C26.5477 23.1498 25.6512 23.1498 24.8665 23.4997L19.9481 18.5813C19.5641 18.2105 18.9521 18.2211 18.5813 18.6051C18.2195 18.9797 18.2195 19.5736 18.5813 19.9482L23.49 24.8569C22.8008 26.2996 23.4117 28.028 24.8546 28.7172C25.962 29.2462 27.2827 29.0194 28.1503 28.1513C29.0226 27.2864 29.2472 25.962 28.709 24.8579L39.0872 14.4797C39.4645 14.1022 39.4645 13.4903 39.0872 13.1129ZM26.7837 26.7832C26.7836 26.7833 26.7836 26.7833 26.7834 26.7835C26.4011 27.149 25.7989 27.149 25.4166 26.7835C25.039 26.406 25.039 25.794 25.4163 25.4163C25.7938 25.0387 26.4058 25.0387 26.7834 25.4161C27.161 25.7936 27.161 26.4057 26.7837 26.7832Z" fill="white"/>
</svg>
