<svg width="50" height="50" viewBox="0 0 50 50" fill="none" xmlns="http://www.w3.org/2000/svg">
<g clip-path="url(#clip0_52_13638)">
<path d="M13.9218 40.6686V38.166L9.4833 35.6762V43.0483C9.4833 43.4214 9.18066 43.724 8.80762 43.724C8.43457 43.724 8.13193 43.4214 8.13193 43.0483V34.5224C8.13193 34.2826 8.25908 34.0604 8.46621 33.9395C8.67256 33.8173 8.92852 33.8155 9.13838 33.9329L14.9278 37.1811C15.1412 37.3007 15.2731 37.526 15.2731 37.7705V40.6686C15.2731 41.0416 14.9705 41.3442 14.5975 41.3442C14.2244 41.3442 13.9218 41.0416 13.9218 40.6686ZM1.49385 33.7859V25.7319C1.49385 23.4354 3.76191 22.4074 6.00977 22.4074H6.57158C5.67432 21.5794 5.08818 20.248 5.08818 18.7446C5.08818 16.4378 6.47383 15.0049 8.7041 15.0049C10.9348 15.0049 12.3205 16.4378 12.3205 18.7446C12.3205 20.248 11.7344 21.5794 10.837 22.4074H16.1397C16.3553 22.4074 16.5264 22.3793 16.731 22.3103L19.2556 21.4575L20.9605 20.8623L24.6499 19.5591C24.9776 19.4434 25.2239 19.2731 25.4479 19.007L26.6316 17.5996C27.9676 16.0103 29.0225 14.7548 30.991 14.7548L32.7615 14.7356C31.7251 13.9146 31.0328 12.4661 31.0328 10.8146C31.0328 8.46455 32.4444 7.00449 34.7165 7.00449C36.989 7.00449 38.4006 8.46445 38.4006 10.8146C38.4006 12.4366 37.7336 13.8644 36.7279 14.6927H40.8373L40.8478 10.6985C40.8478 9.63818 41.5545 8.77676 42.54 8.50195V0.675684C42.54 0.302441 42.8427 0 43.2157 0H49.3245C49.5607 0 49.7798 0.123438 49.9021 0.325293C50.0248 0.527246 50.0327 0.778418 49.9236 0.987793L49.2132 2.35215L49.9236 3.7165C50.0327 3.92588 50.0248 4.17705 49.9021 4.379C49.7798 4.58096 49.5607 4.7043 49.3245 4.7043H43.8914V8.51797C44.8218 8.81182 45.5027 9.67256 45.5027 10.6987V16.967C45.5027 18.2495 44.4602 19.293 43.1792 19.293L40.3467 19.4061C39.8008 19.4067 39.3094 19.6121 38.9368 19.9854C38.5643 20.3586 38.3588 20.8511 38.3588 21.3719V25.8746L43.9591 29.1122C44.1681 29.2332 44.2965 29.4563 44.2965 29.6973V35.3473C44.2965 35.7203 43.9938 36.0229 43.6208 36.0229C43.2478 36.0229 42.9451 35.7203 42.9451 35.3473V30.0869L37.3448 26.8493C37.1358 26.7283 37.0074 26.5053 37.0074 26.2643V21.3718C37.0074 20.4904 37.3532 19.6591 37.9805 19.0305C38.6086 18.4015 39.4396 18.0553 40.3198 18.0553L43.1523 17.9422C43.7154 17.9415 44.1514 17.5043 44.1514 16.967V10.6987C44.1514 10.1772 43.7269 9.75293 43.2052 9.75293C42.6224 9.75293 42.1991 10.1506 42.1991 10.6987L42.1903 14.826C42.1903 15.5243 41.622 16.0986 40.923 16.1061L30.9986 16.1063C29.7089 16.1063 29.0077 16.8733 27.6664 18.4692L26.4817 19.8771C26.099 20.332 25.6601 20.6357 25.1 20.8337L22.6251 21.708C22.8152 21.9062 22.9762 22.1381 23.088 22.4063C23.2422 22.7761 23.2855 23.1699 23.2386 23.5569L26.7734 22.4653C27.1104 22.3613 27.366 22.1981 27.6018 21.9357L29.4762 19.8507C29.6636 19.6422 29.9596 19.5709 30.2205 19.6717C30.4818 19.7718 30.6542 20.0228 30.6542 20.3024V37.9652C30.6542 38.3383 30.3516 38.6409 29.9785 38.6409C29.6055 38.6409 29.3028 38.3383 29.3028 37.9652V22.0644L28.6064 22.839C28.2035 23.2872 27.7478 23.5786 27.172 23.7562L21.7986 25.4154C21.798 25.4156 21.7975 25.4156 21.7969 25.4157L17.9354 26.7934C17.5761 26.9214 17.2448 26.9785 16.8617 26.9785H15.0428C14.5408 26.9785 14.0657 27.1773 13.7051 27.539C13.3443 27.9001 13.1455 28.3766 13.1455 28.8798V32.3123L18.6125 35.4729C18.8215 35.5939 18.9499 35.817 18.9499 36.058V40.6686C18.9499 41.0416 18.6473 41.3442 18.2742 41.3442C17.9012 41.3442 17.5985 41.0416 17.5985 40.6686V36.4478L12.1315 33.2871C11.9226 33.1661 11.7941 32.9431 11.7941 32.702V28.8798C11.7941 28.0158 12.1333 27.2007 12.7487 26.584C13.365 25.9668 14.1797 25.6272 15.0428 25.6272H16.8617C17.0892 25.6272 17.2687 25.5965 17.4815 25.5203L21.3724 24.1333C21.5694 24.0504 21.748 23.8711 21.8426 23.6408C21.9371 23.4104 21.9367 23.1565 21.8403 22.926C21.6419 22.4498 21.0942 22.2239 20.6201 22.421C20.6061 22.427 17.1635 23.5904 17.1635 23.5904C16.8186 23.7067 16.5027 23.7587 16.1398 23.7587H6.00986C5.68613 23.7587 2.84531 23.8142 2.84531 25.7318V33.7858C2.84531 34.6498 3.44102 35.3777 4.2627 35.6443V26.7432C4.2627 26.3701 4.56533 26.0675 4.93838 26.0675C5.31143 26.0675 5.61406 26.3701 5.61406 26.7432V36.4305C5.61406 36.432 5.61455 36.4334 5.61455 36.4349C5.61455 36.4363 5.61406 36.4377 5.61406 36.4393V43.0482C5.61406 43.4213 5.31143 43.7239 4.93838 43.7239C4.56533 43.7239 4.2627 43.4213 4.2627 43.0482V37.0455C2.68584 36.7413 1.49385 35.3957 1.49385 33.7859ZM43.8912 3.35283H48.2105L47.8521 2.66416C47.75 2.46865 47.75 2.23545 47.8521 2.03994L48.2105 1.35127H43.8912V3.35283ZM32.3841 10.8147C32.3841 12.6251 33.4302 14.0981 34.7164 14.0981C36.0026 14.0981 37.0491 12.6252 37.0491 10.8147C37.0491 8.67529 35.5878 8.35596 34.7164 8.35596C33.8454 8.35596 32.3841 8.67539 32.3841 10.8147ZM6.43955 18.7447C6.43955 20.5063 7.45527 21.9393 8.7041 21.9393C9.95293 21.9393 10.9691 20.5063 10.9691 18.7447C10.9691 16.6667 9.55 16.3563 8.7041 16.3563C7.8582 16.3563 6.43955 16.6667 6.43955 18.7447ZM39.8596 36.0229C40.2326 36.0229 40.5353 35.7202 40.5353 35.3472V31.4488C40.5353 31.2042 40.4033 30.979 40.1899 30.8594L34.2668 27.5368C34.0583 27.4193 33.8019 27.4211 33.5951 27.5435C33.3879 27.6645 33.2608 27.8866 33.2608 28.1263V37.9649C33.2608 38.338 33.5635 38.6406 33.9365 38.6406C34.3096 38.6406 34.6122 38.338 34.6122 37.9649V29.2802L39.184 31.8447V35.3472C39.1839 35.7202 39.4865 36.0229 39.8596 36.0229ZM49.3243 38.5716H37.1622C36.7892 38.5716 36.4865 38.8742 36.4865 39.2473V41.2813H25C24.627 41.2813 24.3243 41.584 24.3243 41.957V43.542H12.8378C12.4647 43.542 12.1621 43.8446 12.1621 44.2177V46.0951H0.675684C0.302637 46.0951 0 46.3978 0 46.7708V49.3244C0 49.6974 0.302637 50 0.675684 50C1.04873 50 1.35137 49.6974 1.35137 49.3243V47.4464H12.1622V49.3243C12.1622 49.6974 12.4648 50 12.8379 50C13.2109 50 13.5136 49.6974 13.5136 49.3243V44.8933H24.3244V49.3243C24.3244 49.6974 24.6271 50 25.0001 50C25.3731 50 25.6758 49.6974 25.6758 49.3243V42.6326H36.4866V49.3243C36.4866 49.6974 36.7893 50 37.1623 50C37.5354 50 37.838 49.6974 37.838 49.3243V39.923H48.6488V49.3243C48.6488 49.6974 48.9515 50 49.3245 50C49.6976 50 50.0002 49.6974 50.0002 49.3243V39.2473C50 38.8742 49.6974 38.5716 49.3243 38.5716Z" fill="white"/>
</g>
<defs>
<clipPath id="clip0_52_13638">
<rect width="50" height="50" fill="white"/>
</clipPath>
</defs>
</svg>
