<svg width="606" height="472" viewBox="0 0 606 472" fill="none" xmlns="http://www.w3.org/2000/svg">
<g clip-path="url(#clip0_129_11592)">
<path opacity="0.7" d="M221.902 347.527C154.094 326.616 -0.995065 277.538 28.5728 139.836C62.6897 -19.2043 250.616 88.6245 365.903 34.8523C447.499 -3.27185 617.799 -43.3876 605.289 128.598C593.064 295.889 586.099 416.948 487.16 445.683C388.079 474.418 324.252 379.108 221.902 347.527Z" fill="#6B79EF" fill-opacity="0.31"/>
<path d="M17.3427 470.293H605.289" stroke="#263238" stroke-miterlimit="10" stroke-linecap="round" stroke-linejoin="round"/>
<path d="M490.714 96.3062C499.811 103.419 508.483 111.243 516.87 119.494" stroke="#263238" stroke-width="0.75" stroke-miterlimit="10" stroke-linecap="round" stroke-linejoin="round"/>
<path d="M480.763 88.7667C482.469 90.047 484.175 91.3273 485.88 92.6076" stroke="#263238" stroke-width="0.75" stroke-miterlimit="10" stroke-linecap="round" stroke-linejoin="round"/>
<path d="M470.954 81.9385C472.802 83.0765 474.508 84.3568 476.214 85.4949" stroke="#263238" stroke-width="0.75" stroke-miterlimit="10" stroke-linecap="round" stroke-linejoin="round"/>
<path d="M398.172 47.513C421.485 54.7679 443.945 65.0103 465.126 78.2399" stroke="#263238" stroke-width="0.75" stroke-miterlimit="10" stroke-linecap="round" stroke-linejoin="round"/>
<path d="M382.677 43.2453C385.52 43.9566 388.363 44.8101 391.348 45.5214" stroke="#263238" stroke-width="0.75" stroke-miterlimit="10" stroke-linecap="round" stroke-linejoin="round"/>
<path d="M366.756 39.689C369.883 40.258 373.011 40.9693 376.138 41.6805" stroke="#263238" stroke-width="0.75" stroke-miterlimit="10" stroke-linecap="round" stroke-linejoin="round"/>
<path d="M352.398 37.2707C355.099 37.6974 357.8 38.1242 360.501 38.5509" stroke="#263238" stroke-width="0.75" stroke-miterlimit="10" stroke-linecap="round" stroke-linejoin="round"/>
<path d="M266.68 37.8397C292.978 33.7143 319.845 33.2875 346.286 36.4171" stroke="#263238" stroke-width="0.75" stroke-miterlimit="10" stroke-linecap="round" stroke-linejoin="round"/>
<path d="M255.023 39.9735C257.44 39.5467 259.856 38.9777 262.273 38.6932" stroke="#263238" stroke-width="0.75" stroke-miterlimit="10" stroke-linecap="round" stroke-linejoin="round"/>
<path d="M243.651 42.3918C246.068 41.8228 248.484 41.2538 250.901 40.6848" stroke="#263238" stroke-width="0.75" stroke-miterlimit="10" stroke-linecap="round" stroke-linejoin="round"/>
<path d="M229.578 46.0904C231.994 45.3791 234.553 44.6679 236.97 43.9566" stroke="#263238" stroke-width="0.75" stroke-miterlimit="10" stroke-linecap="round" stroke-linejoin="round"/>
<path d="M144.996 86.7752C168.878 69.9892 194.892 57.1863 221.759 48.5088" stroke="#263238" stroke-width="0.75" stroke-miterlimit="10" stroke-linecap="round" stroke-linejoin="round"/>
<path d="M133.624 95.3104C135.899 93.6034 138.031 91.8963 140.305 90.1893" stroke="#263238" stroke-width="0.75" stroke-miterlimit="10" stroke-linecap="round" stroke-linejoin="round"/>
<path d="M122.11 104.699C124.526 102.565 126.943 100.574 129.502 98.5823" stroke="#263238" stroke-width="0.75" stroke-miterlimit="10" stroke-linecap="round" stroke-linejoin="round"/>
<path d="M106.189 119.494C109.458 116.222 112.87 112.95 116.424 109.82" stroke="#263238" stroke-width="0.75" stroke-miterlimit="10" stroke-linecap="round" stroke-linejoin="round"/>
<path d="M181.956 102.992C201.505 102.992 217.353 87.1335 217.353 67.5708C217.353 48.0081 201.505 32.1495 181.956 32.1495C162.408 32.1495 146.56 48.0081 146.56 67.5708C146.56 87.1335 162.408 102.992 181.956 102.992Z" fill="#6B79EF"/>
<path d="M181.956 102.992C201.505 102.992 217.353 87.1335 217.353 67.5708C217.353 48.0081 201.505 32.1495 181.956 32.1495C162.408 32.1495 146.56 48.0081 146.56 67.5708C146.56 87.1335 162.408 102.992 181.956 102.992Z" stroke="#263238" stroke-width="0.75" stroke-miterlimit="10" stroke-linecap="round" stroke-linejoin="round"/>
<path d="M165.04 81.5117V72.5497C165.04 70.2736 164.472 69.7046 162.055 69.7046V65.437C164.472 65.437 165.04 64.7257 165.04 62.5919V53.7721C165.04 50.0735 167.457 48.3665 170.442 48.3665H173.143V52.6341H172.432C170.726 52.6341 169.873 53.3454 169.873 56.0482V63.3032C169.873 65.0102 169.305 66.8595 166.888 67.5708V67.713C169.163 68.4243 169.873 70.2736 169.873 71.9807V79.2357C169.873 81.9385 170.726 82.6498 172.432 82.6498H173.143V86.9174H170.442C167.315 86.7751 165.04 85.0681 165.04 81.5117Z" fill="white"/>
<path d="M190.912 82.5075H191.623C193.329 82.5075 194.182 81.7962 194.182 79.0934V71.8384C194.182 70.1314 194.75 68.2821 197.167 67.5708V67.4286C194.892 66.7173 194.182 64.868 194.182 63.1609V55.9059C194.182 53.2031 193.329 52.4918 191.623 52.4918H190.912V48.2242H193.613C196.598 48.2242 199.015 49.9313 199.015 53.6299V62.4496C199.015 64.7257 199.583 65.2947 202 65.2947V69.5624C199.583 69.5624 199.015 70.2736 199.015 72.4075V81.2272C199.015 84.9258 196.598 86.6329 193.613 86.6329H190.912V82.5075Z" fill="white"/>
<path d="M113.438 167.149H92.9683C83.5862 167.149 75.9099 159.467 75.9099 150.078V129.736C75.9099 120.347 83.5862 112.665 92.9683 112.665H113.438C122.821 112.665 130.497 120.347 130.497 129.736V150.221C130.355 159.609 122.821 167.149 113.438 167.149Z" fill="#6B79EF" stroke="#263238" stroke-width="0.75" stroke-miterlimit="10" stroke-linecap="round" stroke-linejoin="round"/>
<path d="M83.4441 141.259V138.556L94.3899 133.861V136.706L86.8557 139.836L94.3899 142.966V145.811L83.4441 141.259Z" fill="white"/>
<path d="M106.473 127.46H109.885L100.076 152.354H96.6643L106.473 127.46Z" fill="white"/>
<path d="M112.017 143.108L119.551 139.978L112.017 136.849V134.004L122.821 138.698V141.401L112.017 146.095V143.108Z" fill="white"/>
<path d="M435.227 94.1183C452.962 94.1183 467.339 79.731 467.339 61.9834C467.339 44.2358 452.962 29.8484 435.227 29.8484C417.492 29.8484 403.115 44.2358 403.115 61.9834C403.115 79.731 417.492 94.1183 435.227 94.1183Z" fill="#6B79EF"/>
<path d="M435.227 94.1183C452.962 94.1183 467.339 79.731 467.339 61.9834C467.339 44.2358 452.962 29.8484 435.227 29.8484C417.492 29.8484 403.115 44.2358 403.115 61.9834C403.115 79.731 417.492 94.1183 435.227 94.1183Z" stroke="#263238" stroke-width="0.799166" stroke-miterlimit="10" stroke-linecap="round" stroke-linejoin="round"/>
<path d="M434.475 54.1831C434.483 54.9462 434.527 55.705 434.605 56.4594C434.683 57.2052 434.791 57.9466 434.93 58.6837L433.616 58.9438C433.391 57.7124 432.81 56.7846 431.873 56.1602C430.945 55.5272 429.679 55.2107 428.075 55.2107C425.916 55.2107 424.238 55.8524 423.041 57.1358C421.853 58.4192 421.259 60.2228 421.259 62.5468C421.259 65.0182 421.905 66.991 423.197 68.4651C424.498 69.9306 426.224 70.6633 428.374 70.6633C428.86 70.6633 429.337 70.62 429.805 70.5333C430.282 70.4379 430.754 70.2948 431.223 70.104C431.231 69.7138 431.24 69.2022 431.249 68.5692C431.266 67.9275 431.275 67.5243 431.275 67.3595C431.275 66.0935 431.123 65.3044 430.82 64.9922C430.516 64.6713 429.853 64.5109 428.829 64.5109H428.452V63.3533C429.354 63.3966 430.117 63.427 430.741 63.4443C431.366 63.4617 431.934 63.4703 432.445 63.4703C433 63.4703 433.607 63.4617 434.266 63.4443C434.925 63.427 435.732 63.3966 436.686 63.3533V64.5109H436.309C435.624 64.5109 435.173 64.667 434.956 64.9792C434.739 65.2913 434.631 66.1585 434.631 67.5806V68.8553C434.631 69.3323 434.639 69.7919 434.657 70.2341C434.674 70.6764 434.7 71.1143 434.735 71.5478C432.688 71.9988 431.179 72.2936 430.208 72.4323C429.237 72.5711 428.357 72.6404 427.568 72.6404C424.463 72.6404 421.97 71.7646 420.089 70.013C418.207 68.2613 417.266 65.9417 417.266 63.0541C417.266 60.0971 418.285 57.7081 420.323 55.8871C422.369 54.0574 425.044 53.1426 428.348 53.1426C429.371 53.1426 430.395 53.2293 431.418 53.4027C432.45 53.5761 433.469 53.8363 434.475 54.1831ZM444.997 60.5697C443.931 60.5697 443.103 60.9686 442.513 61.7664C441.932 62.5555 441.642 63.6741 441.642 65.1222C441.642 66.8826 441.975 68.2787 442.643 69.3106C443.311 70.3425 444.208 70.8585 445.336 70.8585C446.411 70.8585 447.256 70.4422 447.872 69.6098C448.496 68.7773 448.809 67.637 448.809 66.1888C448.809 64.4632 448.462 63.0975 447.768 62.0916C447.083 61.077 446.159 60.5697 444.997 60.5697ZM445.258 58.8658C447.295 58.8658 448.965 59.4944 450.265 60.7518C451.566 62.0005 452.216 63.5831 452.216 65.4995C452.216 67.5113 451.536 69.1935 450.174 70.5463C448.822 71.8904 447.131 72.5624 445.101 72.5624C443.072 72.5624 441.416 71.9294 440.133 70.6633C438.849 69.3973 438.208 67.7757 438.208 65.7986C438.208 63.8562 438.893 62.2173 440.263 60.8819C441.642 59.5378 443.306 58.8658 445.258 58.8658Z" fill="white"/>
<path d="M317.144 66.5751H289.851C279.189 66.5751 270.518 57.8975 270.518 47.2285V19.9156C270.518 9.24655 279.189 0.569031 289.851 0.569031H317.144C327.806 0.569031 336.477 9.24655 336.477 19.9156V47.2285C336.477 57.8975 327.806 66.5751 317.144 66.5751Z" fill="#6B79EF" stroke="#263238" stroke-width="0.75" stroke-miterlimit="10" stroke-linecap="round" stroke-linejoin="round"/>
<path d="M283.738 40.5425V26.6016C283.738 22.6185 285.871 20.2001 289.709 20.2001C293.689 20.2001 295.679 22.6185 295.679 26.6016V29.3044H291.841V26.3171C291.841 24.61 290.988 23.8987 289.851 23.8987C288.571 23.8987 287.861 24.61 287.861 26.3171V40.827C287.861 42.5341 288.714 43.2453 289.851 43.2453C291.13 43.2453 291.841 42.5341 291.841 40.827V36.8439H295.679V40.5425C295.679 44.5256 293.547 46.944 289.709 46.944C285.728 46.8017 283.738 44.5256 283.738 40.5425Z" fill="white"/>
<path d="M297.527 40.258V38.8355H301.365V40.5425C301.365 42.3918 302.218 43.1031 303.498 43.1031C304.777 43.1031 305.63 42.3918 305.63 40.5425C305.63 38.4087 304.777 36.9862 302.218 34.7101C298.807 31.7227 297.669 29.5889 297.669 26.6016C297.669 22.4762 299.802 20.2001 303.782 20.2001C307.762 20.2001 309.752 22.6185 309.752 26.7438V27.8819H305.63V26.6016C305.63 24.7523 304.919 24.041 303.64 24.041C302.36 24.041 301.65 24.7523 301.65 26.4593C301.65 28.3086 302.503 29.7312 305.203 32.0072C308.615 34.9946 309.61 37.1284 309.61 40.258C309.61 44.5256 307.478 46.8017 303.498 46.8017C299.517 46.8017 297.527 44.5256 297.527 40.258Z" fill="white"/>
<path d="M311.174 40.258V38.8355H315.012V40.5425C315.012 42.3918 315.865 43.1031 317.144 43.1031C318.424 43.1031 319.277 42.3918 319.277 40.5425C319.277 38.4087 318.424 36.9862 315.865 34.7101C312.453 31.7227 311.316 29.5889 311.316 26.6016C311.316 22.4762 313.448 20.2001 317.429 20.2001C321.409 20.2001 323.399 22.6185 323.399 26.7438V27.8819H319.561V26.6016C319.561 24.7523 318.85 24.041 317.571 24.041C316.291 24.041 315.581 24.7523 315.581 26.4593C315.581 28.3086 316.434 29.7312 319.134 32.0072C322.546 34.9946 323.541 37.1284 323.541 40.258C323.541 44.5256 321.409 46.8017 317.429 46.8017C313.164 46.8017 311.174 44.5256 311.174 40.258Z" fill="white"/>
<path d="M520.203 162.178C537.938 162.178 552.315 147.79 552.315 130.043C552.315 112.295 537.938 97.9078 520.203 97.9078C502.468 97.9078 488.091 112.295 488.091 130.043C488.091 147.79 502.468 162.178 520.203 162.178Z" fill="#6B79EF"/>
<path d="M520.203 162.178C537.938 162.178 552.315 147.79 552.315 130.043C552.315 112.295 537.938 97.9078 520.203 97.9078C502.468 97.9078 488.091 112.295 488.091 130.043C488.091 147.79 502.468 162.178 520.203 162.178Z" stroke="#263238" stroke-width="0.799166" stroke-miterlimit="10" stroke-linecap="round" stroke-linejoin="round"/>
<path d="M502.667 130.563H502.726C503.186 130.585 503.525 130.596 503.741 130.596C503.913 130.596 504.097 130.593 504.291 130.588C504.485 130.577 504.69 130.56 504.907 130.538C505.295 130.227 505.578 129.902 505.756 129.564C505.939 129.22 506.031 128.828 506.031 128.39C506.031 127.785 505.814 127.305 505.381 126.95C504.954 126.595 504.363 126.417 503.608 126.417C503.525 126.417 503.4 126.423 503.234 126.434C503.067 126.445 502.887 126.462 502.692 126.484C502.681 126.8 502.673 127.103 502.667 127.391C502.667 127.68 502.667 127.957 502.667 128.224V130.563ZM497.689 135.724H497.997C498.314 135.724 498.555 135.694 498.722 135.633C498.894 135.571 499.016 135.472 499.088 135.333C499.171 135.177 499.229 134.939 499.263 134.617C499.296 134.295 499.313 133.732 499.313 132.927V131.395V130.221C499.313 129.9 499.318 129.494 499.329 129.006C499.34 128.512 499.346 128.176 499.346 127.999C499.346 127.139 499.26 126.57 499.088 126.292C498.916 126.009 498.599 125.868 498.139 125.868C498.033 125.868 497.953 125.87 497.897 125.876C497.847 125.876 497.798 125.879 497.748 125.884V124.869C498.258 124.913 498.752 124.946 499.229 124.969C499.707 124.991 500.173 125.002 500.628 125.002C501.316 125.002 502.14 124.971 503.1 124.91C504.06 124.844 504.679 124.81 504.957 124.81C506.411 124.81 507.524 125.082 508.295 125.626C509.072 126.17 509.46 126.95 509.46 127.966C509.46 128.587 509.266 129.142 508.878 129.63C508.495 130.113 507.898 130.56 507.088 130.971L508.436 133.152C509.064 134.173 509.571 134.858 509.96 135.208C510.348 135.552 510.759 135.724 511.192 135.724C511.231 135.724 511.272 135.724 511.317 135.724C511.361 135.719 511.433 135.707 511.533 135.691V136.781C511.428 136.787 511.278 136.792 511.084 136.798C510.235 136.831 509.652 136.848 509.336 136.848C508.242 136.848 507.421 136.723 506.871 136.473C506.322 136.218 505.889 135.782 505.573 135.166C505.417 134.872 505.168 134.359 504.824 133.626C504.479 132.894 504.199 132.355 503.983 132.011C503.794 132.028 503.614 132.042 503.442 132.053C503.27 132.058 503.109 132.061 502.959 132.061H502.667V133.934C502.667 134.722 502.748 135.219 502.909 135.424C503.075 135.624 503.389 135.724 503.85 135.724H504.083V136.765C503.217 136.715 502.551 136.681 502.085 136.665C501.624 136.643 501.269 136.631 501.019 136.631C500.681 136.631 500.278 136.64 499.812 136.656C499.351 136.668 498.644 136.698 497.689 136.748V135.724ZM515.413 128.19C515.368 129.228 515.335 130.13 515.313 130.896C515.29 131.656 515.279 132.322 515.279 132.894C515.279 133.71 515.376 134.278 515.571 134.6C515.765 134.917 516.092 135.075 516.553 135.075C516.764 135.075 516.991 135.036 517.236 134.958C517.485 134.875 517.777 134.742 518.11 134.559C518.137 133.565 518.154 132.808 518.16 132.286C518.171 131.764 518.176 131.279 518.176 130.829C518.176 130.391 518.112 130.094 517.985 129.938C517.857 129.783 517.613 129.705 517.252 129.705C517.158 129.705 517.083 129.708 517.027 129.714C516.972 129.714 516.919 129.716 516.869 129.722L516.828 128.806C517.555 128.734 518.279 128.648 519 128.548C519.722 128.443 520.435 128.323 521.14 128.19C521.107 129.472 521.082 130.571 521.065 131.487C521.048 132.397 521.04 133.116 521.04 133.643V133.968C521.04 134.606 521.087 135.008 521.181 135.175C521.276 135.336 521.451 135.416 521.706 135.416C521.761 135.416 521.831 135.411 521.914 135.399C522.003 135.383 522.108 135.361 522.23 135.333L522.322 136.274L518.076 137.023L518.126 135.741C517.327 136.262 516.708 136.615 516.27 136.798C515.837 136.981 515.437 137.073 515.071 137.073C514.605 137.073 514.175 136.978 513.781 136.79C513.392 136.601 513.079 136.337 512.84 135.999C512.663 135.738 512.532 135.455 512.449 135.15C512.371 134.839 512.332 134.45 512.332 133.984C512.332 133.907 512.335 133.787 512.341 133.626C512.346 133.465 512.349 133.34 512.349 133.252L512.399 131.803C512.405 131.404 512.416 131.04 512.432 130.713C512.432 130.679 512.432 130.663 512.432 130.663C512.432 130.313 512.366 130.069 512.232 129.93C512.099 129.791 511.863 129.722 511.525 129.722C511.431 129.722 511.361 129.725 511.317 129.73C511.272 129.73 511.225 129.733 511.175 129.739L511.134 128.84C511.811 128.773 512.504 128.687 513.215 128.582C513.931 128.471 514.663 128.34 515.413 128.19ZM527.125 135.183C527.342 135.311 527.544 135.405 527.733 135.466C527.922 135.527 528.105 135.558 528.282 135.558C528.848 135.558 529.295 135.333 529.623 134.883C529.956 134.428 530.122 133.804 530.122 133.01C530.122 132.033 529.945 131.268 529.589 130.713C529.24 130.158 528.757 129.88 528.141 129.88C527.974 129.88 527.8 129.913 527.616 129.98C527.439 130.041 527.245 130.138 527.034 130.271C527.034 130.388 527.031 130.563 527.025 130.796C527.009 131.59 527 132.125 527 132.403C527 133.202 527.009 133.829 527.025 134.284C527.048 134.733 527.081 135.033 527.125 135.183ZM527.159 123.861C527.098 124.921 527.053 125.87 527.025 126.708C526.998 127.547 526.984 128.329 526.984 129.056C527.428 128.712 527.844 128.465 528.232 128.315C528.626 128.165 529.04 128.09 529.473 128.09C530.583 128.09 531.512 128.49 532.262 129.289C533.016 130.088 533.394 131.079 533.394 132.261C533.394 133.687 532.867 134.844 531.812 135.732C530.763 136.615 529.381 137.056 527.666 137.056C526.978 137.056 526.332 137.006 525.727 136.906C525.122 136.806 524.553 136.656 524.02 136.457C524.053 134.52 524.081 131.795 524.103 128.282V127.949V126.367C524.103 126.084 524.034 125.87 523.895 125.726C523.762 125.582 523.56 125.51 523.288 125.51H522.821L522.788 124.594C523.482 124.544 524.189 124.458 524.911 124.336C525.638 124.214 526.387 124.056 527.159 123.861ZM533.86 128.373C534.654 128.423 535.233 128.457 535.6 128.473C535.972 128.49 536.282 128.498 536.532 128.498C536.904 128.498 537.323 128.487 537.789 128.465C538.261 128.443 538.758 128.415 539.279 128.382V129.331H539.096C538.813 129.331 538.611 129.375 538.488 129.464C538.366 129.547 538.305 129.686 538.305 129.88C538.305 130.008 538.536 130.685 538.996 131.911C539.301 132.722 539.548 133.385 539.737 133.901C540.42 132.242 540.847 131.182 541.019 130.721C541.191 130.255 541.277 129.958 541.277 129.83C541.277 129.642 541.224 129.508 541.119 129.431C541.019 129.353 540.85 129.314 540.611 129.314C540.556 129.314 540.511 129.317 540.478 129.322C540.45 129.322 540.42 129.325 540.386 129.331V128.373C540.897 128.423 541.297 128.457 541.585 128.473C541.874 128.49 542.129 128.498 542.351 128.498C542.59 128.498 543.02 128.473 543.641 128.423C543.952 128.401 544.191 128.385 544.357 128.373V129.331C544.33 129.331 544.285 129.328 544.224 129.322C544.163 129.317 544.124 129.314 544.108 129.314C543.636 129.314 543.025 130.147 542.276 131.811C541.993 132.444 541.763 132.946 541.585 133.318C541.291 133.934 540.897 134.764 540.403 135.807C539.215 138.321 538.516 139.742 538.305 140.07C538.05 140.475 537.786 140.769 537.514 140.952C537.248 141.141 536.957 141.235 536.64 141.235C536.246 141.235 535.916 141.11 535.65 140.86C535.389 140.616 535.258 140.308 535.258 139.936C535.258 139.614 535.358 139.365 535.558 139.187C535.763 139.015 536.055 138.929 536.432 138.929C536.959 138.929 537.453 138.449 537.914 137.489C537.975 137.367 538.022 137.272 538.056 137.206C537.007 134.736 536.024 132.439 535.109 130.313L534.967 129.98C534.856 129.719 534.737 129.544 534.609 129.456C534.487 129.361 534.315 129.314 534.093 129.314C534.032 129.314 533.985 129.317 533.951 129.322C533.918 129.322 533.888 129.325 533.86 129.331V128.373Z" fill="white"/>
<path d="M117.987 308.123C126.659 315.236 123.673 357.058 150.398 339.134C176.981 321.21 131.634 310.541 134.193 300.299C137.889 286.074 197.878 303.144 187.785 275.831C177.692 248.518 141.869 289.63 132.345 279.388C123.673 269.999 166.888 236.142 146.702 230.452C126.517 224.762 130.923 273.697 117.987 273.697C107.894 273.697 109.742 226.896 91.2625 243.539C72.7825 260.041 113.296 276.4 107.894 286.643C103.914 294.467 71.9296 275.12 73.3512 293.186C74.7727 311.11 108.89 300.726 117.987 308.123Z" fill="#55C787"/>
<path d="M123.673 286.785C123.673 286.785 104.198 310.399 106.473 374.414" stroke="#263238" stroke-miterlimit="10" stroke-linecap="round" stroke-linejoin="round"/>
<path d="M161.628 320.072C158.217 313.102 129.644 308.407 145.992 293.329C162.339 278.25 162.197 310.541 169.589 310.399C179.824 310.257 177.834 267.154 194.608 278.25C211.382 289.345 177.976 306.985 183.378 314.951C188.353 322.206 217.921 298.592 218.49 313.102C219.201 327.612 186.932 316.8 184.942 325.62C183.378 332.448 215.078 338.565 201.005 348.381C186.932 358.196 182.383 328.323 174.707 330.315C168.878 331.737 176.697 356.347 164.898 352.506C153.099 348.665 165.182 327.47 161.628 320.072Z" fill="#55C787"/>
<path opacity="0.3" d="M161.628 320.072C158.217 313.102 129.644 308.407 145.992 293.329C162.339 278.25 162.197 310.541 169.589 310.399C179.824 310.257 177.834 267.154 194.608 278.25C211.382 289.345 177.976 306.985 183.378 314.951C188.353 322.206 217.921 298.592 218.49 313.102C219.201 327.612 186.932 316.8 184.942 325.62C183.378 332.448 215.078 338.565 201.005 348.381C186.932 358.196 182.383 328.323 174.707 330.315C168.878 331.737 176.697 356.347 164.898 352.506C153.099 348.665 165.182 327.47 161.628 320.072Z" fill="black"/>
<path d="M176.27 320.357C176.27 320.357 120.973 314.667 115.571 374.271" stroke="#263238" stroke-miterlimit="10" stroke-linecap="round" stroke-linejoin="round"/>
<path d="M70.9346 313.955C62.2632 321.068 65.2484 362.891 38.5236 344.967C11.9409 327.043 57.2878 316.374 54.7291 306.131C51.0331 291.906 -8.95567 308.976 1.13722 281.664C11.2301 254.351 47.0528 295.462 56.5771 285.22C65.2484 275.831 22.0338 241.975 42.2196 236.285C62.4053 230.594 57.9986 279.53 70.9346 279.53C81.0274 279.53 79.1794 232.728 97.6594 249.372C116.139 265.873 75.6256 282.233 81.0274 292.475C85.0077 300.299 116.992 280.952 115.571 299.019C114.007 316.8 79.8902 306.416 70.9346 313.955Z" fill="#55C787"/>
<path opacity="0.3" d="M70.9346 313.955C62.2632 321.068 65.2484 362.891 38.5236 344.967C11.9409 327.043 57.2878 316.374 54.7291 306.131C51.0331 291.906 -8.95567 308.976 1.13722 281.664C11.2301 254.351 47.0528 295.462 56.5771 285.22C65.2484 275.831 22.0338 241.975 42.2196 236.285C62.4053 230.594 57.9986 279.53 70.9346 279.53C81.0274 279.53 79.1794 232.728 97.6594 249.372C116.139 265.873 75.6256 282.233 81.0274 292.475C85.0077 300.299 116.992 280.952 115.571 299.019C114.007 316.8 79.8902 306.416 70.9346 313.955Z" fill="white"/>
<path d="M64.822 292.617C64.822 292.617 89.9831 326.189 95.8114 382.38" stroke="#263238" stroke-miterlimit="10" stroke-linecap="round" stroke-linejoin="round"/>
<path d="M82.7333 470.151H121.968C129.502 470.151 135.757 464.461 136.325 456.921L142.438 384.371C143.148 375.978 136.467 368.723 128.08 368.723H76.6207C68.0915 368.723 61.5524 375.978 62.2632 384.371L68.3758 456.921C69.0866 464.318 75.3413 470.151 82.7333 470.151Z" fill="#55C787" stroke="#263238" stroke-miterlimit="10" stroke-linecap="round" stroke-linejoin="round"/>
<path d="M376.564 365.878C363.486 365.878 325.531 357.343 325.531 357.343H427.455C427.598 357.343 389.643 365.878 376.564 365.878Z" fill="#263238" stroke="#263238" stroke-miterlimit="10" stroke-linecap="round" stroke-linejoin="round"/>
<path d="M388.221 361.611H364.908V377.685H388.221V361.611Z" fill="#858585" stroke="#263238" stroke-miterlimit="10" stroke-linecap="round" stroke-linejoin="round"/>
<path d="M391.775 377.685H361.496V446.679H391.775V377.685Z" fill="#999999" stroke="#263238" stroke-miterlimit="10" stroke-linecap="round" stroke-linejoin="round"/>
<path d="M433.426 336.858C425.607 336.858 421.627 336.858 413.809 336.858C415.941 323.344 417.647 309.403 418.642 295.747C426.46 295.747 430.441 295.747 438.259 295.747C437.264 309.545 435.7 323.344 433.426 336.858Z" fill="#858585" stroke="#263238" stroke-miterlimit="10" stroke-linecap="round" stroke-linejoin="round"/>
<path d="M463.278 174.404C434.989 174.404 406.701 174.404 378.412 174.404C368.462 174.404 361.923 182.797 363.913 192.755C369.315 223.339 372.584 253.497 373.579 284.509C373.721 293.471 380.545 300.441 389.643 300.441C413.382 300.441 437.264 300.441 461.004 300.441C469.959 300.441 478.062 293.471 479.199 284.509C482.611 253.782 483.89 223.624 482.895 192.755C482.469 182.797 473.371 174.404 463.278 174.404Z" fill="#858585" stroke="#263238" stroke-miterlimit="10" stroke-linecap="round" stroke-linejoin="round"/>
<path d="M467.969 192.755C468.964 223.624 467.685 253.924 464.273 284.509C463.136 293.471 455.033 300.441 446.077 300.441C427.313 300.441 408.549 300.441 389.643 300.441C380.687 300.441 373.863 293.471 373.579 284.509C372.584 253.497 369.315 223.197 363.913 192.755C361.923 182.797 368.462 174.404 378.412 174.404C401.726 174.404 424.897 174.404 448.21 174.404C458.303 174.404 467.543 182.797 467.969 192.755Z" fill="#999999" stroke="#263238" stroke-miterlimit="10" stroke-linecap="round" stroke-linejoin="round"/>
<path d="M427.598 458.913C427.598 460.477 426.176 461.758 424.47 461.331C415.23 459.339 387.368 453.507 376.564 453.507C365.761 453.507 337.899 459.339 328.659 461.331C327.095 461.615 325.531 460.477 325.531 458.913C325.531 455.783 327.664 453.08 330.791 452.369C341.595 450.093 366.472 444.972 376.564 444.972C386.657 444.972 411.392 450.093 422.338 452.369C425.323 453.08 427.598 455.783 427.598 458.913Z" fill="#263238" stroke="#263238" stroke-miterlimit="10" stroke-linecap="round" stroke-linejoin="round"/>
<path d="M325.531 453.791C320.698 453.791 316.86 457.632 316.86 462.469C316.86 467.306 320.698 471.146 325.531 471.146C330.365 471.146 334.203 467.306 334.203 462.469C334.345 457.775 330.365 453.791 325.531 453.791ZM325.531 467.306C322.973 467.306 320.84 465.172 320.84 462.611C320.84 460.051 322.973 457.917 325.531 457.917C328.09 457.917 330.222 460.051 330.222 462.611C330.365 465.172 328.232 467.306 325.531 467.306Z" fill="#858585" stroke="#263238" stroke-miterlimit="10" stroke-linecap="round" stroke-linejoin="round"/>
<path d="M376.564 453.791C371.731 453.791 367.893 457.632 367.893 462.469C367.893 467.306 371.731 471.146 376.564 471.146C381.398 471.146 385.236 467.306 385.236 462.469C385.236 457.775 381.398 453.791 376.564 453.791ZM376.564 467.306C374.006 467.306 371.873 465.172 371.873 462.611C371.873 460.051 374.006 457.917 376.564 457.917C379.123 457.917 381.256 460.051 381.256 462.611C381.256 465.172 379.123 467.306 376.564 467.306Z" fill="#858585" stroke="#263238" stroke-miterlimit="10" stroke-linecap="round" stroke-linejoin="round"/>
<path d="M426.46 453.791C421.627 453.791 417.789 457.632 417.789 462.469C417.789 467.306 421.627 471.146 426.46 471.146C431.294 471.146 435.132 467.306 435.132 462.469C435.274 457.775 431.294 453.791 426.46 453.791ZM426.46 467.306C423.902 467.306 421.769 465.172 421.769 462.611C421.769 460.051 423.902 457.917 426.46 457.917C429.019 457.917 431.151 460.051 431.151 462.611C431.151 465.172 429.161 467.306 426.46 467.306Z" fill="#858585" stroke="#263238" stroke-miterlimit="10" stroke-linecap="round" stroke-linejoin="round"/>
<path d="M402.436 334.156C368.177 335.151 334.629 333.729 300.512 329.603C293.547 328.608 288.003 333.444 288.003 340.415C288.003 341.126 288.003 341.411 288.003 342.122C288.003 349.092 293.547 355.636 300.512 356.632C334.629 360.757 368.035 362.18 402.436 361.184C402.436 350.373 402.436 344.967 402.436 334.156Z" fill="#999999" stroke="#263238" stroke-miterlimit="10" stroke-linecap="round" stroke-linejoin="round"/>
<path d="M455.886 356.063C434.705 358.766 413.809 360.473 392.486 361.326C387.368 361.468 383.103 357.343 383.103 352.08C383.103 348.808 383.103 347.243 383.103 343.971C383.103 338.85 387.368 334.582 392.486 334.44C413.809 333.587 434.705 331.737 455.886 329.177C461.004 328.465 465.268 332.022 465.268 337.143C465.268 340.415 465.268 341.98 465.268 345.251C465.126 350.515 461.004 355.351 455.886 356.063Z" fill="#858585" stroke="#263238" stroke-miterlimit="10" stroke-linecap="round" stroke-linejoin="round"/>
<path d="M314.443 466.737C314.443 462.042 313.448 452.511 307.762 440.135L300.512 413.818L277.768 423.491L284.165 443.691C284.165 443.691 264.547 453.08 257.44 455.499C252.607 457.206 238.249 460.477 238.96 466.594C238.96 468.444 240.381 469.866 242.229 469.866H311.174C313.022 470.151 314.443 468.586 314.443 466.737Z" fill="white" stroke="#263238" stroke-miterlimit="10" stroke-linecap="round" stroke-linejoin="round"/>
<path d="M301.934 451.373C298.38 453.934 279.474 457.348 284.165 453.507C288.856 449.666 284.165 443.834 284.165 443.834C284.165 443.834 264.547 453.222 257.44 455.641C252.607 457.348 238.249 460.62 238.96 466.737C238.96 468.586 240.381 470.008 242.229 470.008H311.174C313.022 470.008 314.585 468.444 314.443 466.737C314.443 462.754 313.733 455.356 310.037 445.683C306.198 445.825 305.488 448.813 301.934 451.373Z" fill="#55C787" stroke="#263238" stroke-miterlimit="10" stroke-linecap="round" stroke-linejoin="round"/>
<path d="M330.933 470.151H381.398C382.393 470.151 383.388 469.439 383.53 468.444C384.241 464.461 384.099 455.498 379.55 443.549L379.123 419.366L353.251 423.776L356.521 444.403C356.521 444.403 346.144 455.925 341.168 457.917C337.757 459.339 329.796 459.482 328.801 467.875C328.517 469.013 329.654 470.151 330.933 470.151Z" fill="white" stroke="#263238" stroke-miterlimit="10" stroke-linecap="round" stroke-linejoin="round"/>
<path d="M371.02 451.515C365.619 455.214 361.78 455.641 364.197 450.093C366.756 444.545 356.521 444.26 356.521 444.26C356.521 444.26 346.143 455.783 341.168 457.775C337.756 459.197 329.796 459.339 328.801 467.732C328.659 469.013 329.654 470.151 330.933 470.151H381.398C382.393 470.151 383.388 469.439 383.53 468.444C384.241 464.461 384.098 455.498 379.55 443.549C375.569 444.403 376.28 447.675 371.02 451.515Z" fill="#55C787" stroke="#263238" stroke-miterlimit="10" stroke-linecap="round" stroke-linejoin="round"/>
<path d="M325.816 285.362C325.816 285.362 320.698 290.626 299.944 293.898C279.189 297.169 235.975 307.696 236.543 324.767C236.97 341.837 276.773 432.88 276.773 432.88C276.773 432.88 296.674 429.039 305.914 423.349C305.914 423.349 289.851 358.339 277.91 341.268C277.91 341.268 331.786 334.582 361.638 322.348C391.49 309.972 373.863 281.948 373.863 281.948L325.816 285.362Z" fill="#263238" stroke="#263238" stroke-miterlimit="10" stroke-linecap="round" stroke-linejoin="round"/>
<path d="M359.79 283.086C359.79 283.086 367.467 295.889 361.78 303.002C356.094 310.115 323.683 323.344 327.237 339.561C330.933 355.636 343.016 378.397 350.977 432.453C350.977 432.453 369.315 429.608 381.682 424.345C381.682 424.345 383.672 369.292 369.457 345.678C369.457 345.678 410.397 338.139 414.519 324.34C418.642 310.541 410.965 289.63 410.823 282.09L359.79 283.086Z" fill="#263238" stroke="#263238" stroke-miterlimit="10" stroke-linecap="round" stroke-linejoin="round"/>
<path d="M335.056 303.429C334.203 303.429 333.208 303.429 332.213 303.429" stroke="#7F7F7F" stroke-width="0.75" stroke-linecap="round" stroke-linejoin="round"/>
<path d="M336.904 294.893C336.904 294.893 345.291 297.312 348.56 308.265C348.844 309.119 347.707 309.83 347.139 309.119C345.433 307.412 342.59 305.136 339.036 303.998" stroke="#7F7F7F" stroke-width="0.75" stroke-linecap="round" stroke-linejoin="round"/>
<path d="M273.93 340.841C273.93 336.147 254.028 333.729 259.43 329.461C264.832 325.194 276.773 339.134 276.773 339.134" stroke="#7F7F7F" stroke-width="0.75" stroke-linecap="round" stroke-linejoin="round"/>
<path d="M371.731 359.335C371.731 354.071 352.683 351.084 353.678 345.394C354.673 339.703 366.756 350.942 366.756 350.942" stroke="#7F7F7F" stroke-width="0.75" stroke-linecap="round" stroke-linejoin="round"/>
<path d="M274.783 433.165L276.915 438.001C277.199 438.57 277.768 438.855 278.336 438.712C282.885 437.717 302.076 433.165 308.757 428.328C309.184 428.043 309.326 427.474 309.184 427.048L307.904 421.642C307.762 420.788 306.767 420.504 306.056 420.788C303.071 422.495 294.542 426.336 275.493 431.457C274.783 431.742 274.356 432.453 274.783 433.165Z" fill="#999999" stroke="#263238" stroke-miterlimit="10" stroke-linecap="round" stroke-linejoin="round"/>
<path d="M348.56 429.181C348.418 428.47 349.129 427.901 349.84 428.043C351.261 428.612 353.536 428.897 356.947 428.186C362.207 427.048 377.275 422.211 381.824 420.788C382.393 420.646 383.103 421.073 383.103 421.784V428.043C383.103 428.47 382.819 428.755 382.535 428.897C378.981 430.462 360.075 438.57 350.266 436.294C349.84 436.152 349.555 435.867 349.555 435.441L348.56 429.181Z" fill="#999999" stroke="#263238" stroke-miterlimit="10" stroke-linecap="round" stroke-linejoin="round"/>
<path d="M363.771 297.596C363.628 299.588 362.918 301.437 361.638 303.002C357.516 308.123 339.036 316.658 330.791 327.185" stroke="#7F7F7F" stroke-linecap="round" stroke-linejoin="round"/>
<path d="M362.776 290.341C363.06 291.337 363.344 292.475 363.486 293.613" stroke="#7F7F7F" stroke-linecap="round" stroke-linejoin="round"/>
<path d="M254.028 458.913C254.028 458.913 255.45 461.189 256.587 465.741H307.904C307.904 465.741 308.046 462.327 310.747 459.908" stroke="#263238" stroke-miterlimit="10" stroke-linecap="round" stroke-linejoin="round"/>
<path d="M343.158 458.913C343.158 458.913 350.266 459.482 352.967 465.741H379.834C379.834 465.741 381.255 462.611 381.255 459.908" stroke="#263238" stroke-miterlimit="10" stroke-linecap="round" stroke-linejoin="round"/>
<path d="M301.081 204.989C301.792 207.549 302.36 209.967 303.071 212.386C310.179 237.992 319.419 286.643 319.419 286.643C364.908 296.316 412.956 286.643 412.956 286.643C413.24 275.973 411.961 262.033 410.539 247.238C417.931 245.104 423.333 238.276 423.617 226.896C423.901 212.955 421.485 188.06 420.063 176.395C418.784 166.153 419.637 160.036 403.858 152.212C395.897 147.66 382.677 145.384 366.471 143.25C334.487 138.983 311.458 145.384 303.213 148.94C296.674 147.233 294.968 154.915 294.968 154.915C291.414 152.212 287.15 163.735 287.15 163.735C276.631 177.107 268.386 199.725 265.543 207.834C264.974 209.541 263.837 211.105 262.273 212.244C254.739 217.934 259.004 225.046 259.004 225.046L274.356 229.741C274.356 229.741 281.748 231.732 287.434 221.917C291.983 213.808 299.802 200.01 301.081 204.989Z" fill="#122E45"/>
<path opacity="0.3" d="M277.057 223.339C277.057 223.339 276.773 216.227 271.087 214.946C265.4 213.666 272.65 211.532 277.057 212.67C281.464 213.666 280.469 209.825 284.307 203.424C288.145 197.022 289.993 191.901 293.263 195.6C296.532 199.298 299.802 199.867 301.223 204.846C302.645 209.967 295.821 221.917 295.821 221.917L285.16 230.168L279.758 233.155H271.655L268.954 226.184L277.057 223.339Z" fill="black"/>
<path d="M301.081 204.989C301.792 207.549 302.36 209.967 303.071 212.386C310.179 237.992 319.419 286.643 319.419 286.643C364.908 296.316 412.956 286.643 412.956 286.643C413.24 275.973 411.961 262.033 410.539 247.238C417.931 245.104 423.333 238.276 423.617 226.896C423.901 212.955 421.485 188.06 420.063 176.395C418.784 166.153 419.637 160.036 403.858 152.212C395.897 147.66 382.677 145.384 366.471 143.25C334.487 138.983 311.458 145.384 303.213 148.94C296.674 147.233 294.968 154.915 294.968 154.915C291.414 152.212 287.15 163.735 287.15 163.735C276.631 177.107 268.386 199.725 265.543 207.834C264.974 209.541 263.837 211.105 262.273 212.244C254.739 217.934 259.004 225.046 259.004 225.046L274.356 229.741C274.356 229.741 281.748 231.732 287.434 221.917C291.983 213.808 299.802 200.01 301.081 204.989Z" stroke="#263238" stroke-miterlimit="10" stroke-linecap="round" stroke-linejoin="round"/>
<path opacity="0.3" d="M412.956 286.785C413.098 279.103 412.529 269.572 411.676 259.472C413.24 281.095 368.177 287.923 366.756 276.116C365.334 264.309 410.539 247.38 385.947 253.355C364.481 258.476 322.83 253.64 312.595 252.217C316.576 270.71 319.561 286.785 319.561 286.785C364.908 296.316 412.956 286.785 412.956 286.785Z" fill="black"/>
<path opacity="0.3" d="M392.201 177.96C392.201 177.96 385.804 196.738 385.804 206.696C385.804 216.653 367.751 223.339 367.751 223.339C377.417 221.348 386.799 218.787 391.348 217.507C392.912 217.08 394.049 215.515 393.907 213.808C392.912 203.566 392.059 189.91 392.201 177.96Z" fill="black"/>
<path d="M295.111 173.124C295.111 173.124 294.826 186.638 299.802 199.156C300.228 200.294 298.949 201.432 297.954 200.579C295.537 198.872 292.125 195.315 288.998 188.06" stroke="#263238" stroke-width="0.75" stroke-miterlimit="10" stroke-linecap="round" stroke-linejoin="round"/>
<path d="M415.799 231.306C412.103 218.929 405.564 215.8 400.588 215.373C399.735 215.373 399.451 214.235 400.162 213.808C403.147 212.244 408.833 210.963 415.799 218.787" stroke="#263238" stroke-width="0.75" stroke-miterlimit="10" stroke-linecap="round" stroke-linejoin="round"/>
<path d="M343.727 195.6C343.727 196.738 342.732 197.734 341.595 197.734C340.457 197.734 339.462 196.738 339.462 195.6C339.462 194.462 340.457 193.466 341.595 193.466C342.732 193.466 343.727 194.462 343.727 195.6Z" fill="#999999" stroke="#263238" stroke-width="0.75" stroke-miterlimit="10" stroke-linecap="round" stroke-linejoin="round"/>
<path d="M346.57 219.783C346.57 220.921 345.575 221.917 344.438 221.917C343.3 221.917 342.305 220.921 342.305 219.783C342.305 218.645 343.3 217.649 344.438 217.649C345.575 217.649 346.57 218.645 346.57 219.783Z" fill="#999999" stroke="#263238" stroke-width="0.75" stroke-miterlimit="10" stroke-linecap="round" stroke-linejoin="round"/>
<path d="M353.678 278.25C353.678 279.388 352.683 280.383 351.545 280.383C350.408 280.383 349.413 279.388 349.413 278.25C349.413 277.112 350.408 276.116 351.545 276.116C352.683 276.116 353.678 276.969 353.678 278.25Z" fill="#999999" stroke="#263238" stroke-miterlimit="10" stroke-linecap="round" stroke-linejoin="round"/>
<path d="M312.88 235.716C312.88 235.716 305.914 242.401 309.184 242.544C312.453 242.686 316.718 238.134 320.556 237.565C324.394 236.996 318.139 234.72 318.139 234.72L312.88 235.716Z" fill="white" stroke="#263238" stroke-miterlimit="10" stroke-linecap="round" stroke-linejoin="round"/>
<path d="M353.678 228.176C353.109 227.607 352.256 227.322 351.403 227.465C347.992 227.749 338.183 228.461 334.487 228.318C327.948 227.892 308.615 223.766 308.615 223.766C308.189 223.624 307.762 223.766 307.336 223.908L295.395 227.465C294.968 227.607 294.542 227.749 294.258 228.176L287.008 234.862C286.723 235.146 286.581 235.289 286.439 235.573L284.875 238.276C284.307 239.414 284.449 240.837 285.444 241.832L297.385 242.259C298.096 242.259 298.806 241.975 299.375 241.548L302.929 238.561C303.213 238.418 303.355 238.134 303.498 237.849C304.35 236.427 307.762 231.732 313.022 232.159C313.022 232.159 301.65 238.134 303.782 240.694C305.914 243.255 314.585 236.142 317.429 236.711C320.272 237.423 320.414 244.393 335.909 241.832C336.619 241.69 337.33 241.69 338.041 241.975L352.114 245.958C353.82 246.385 355.668 245.389 356.094 243.682C357.089 239.272 358.084 232.159 353.678 228.176Z" fill="white" stroke="#263238" stroke-miterlimit="10" stroke-linecap="round" stroke-linejoin="round"/>
<path d="M310.179 226.327L307.193 226.896C305.772 227.18 304.35 227.749 303.213 228.745L300.086 231.448C299.517 231.875 299.091 232.444 298.664 233.155L296.674 236.285C296.39 236.569 296.248 236.996 295.963 237.28C294.684 238.561 291.414 242.686 294.968 242.117" fill="white"/>
<path d="M310.179 226.327L307.193 226.896C305.772 227.18 304.35 227.749 303.213 228.745L300.086 231.448C299.517 231.875 299.091 232.444 298.664 233.155L296.674 236.285C296.39 236.569 296.248 236.996 295.963 237.28C294.684 238.561 291.414 242.686 294.968 242.117" stroke="#263238" stroke-miterlimit="10" stroke-linecap="round" stroke-linejoin="round"/>
<path d="M301.649 227.322L298.522 228.176C297.527 228.461 296.674 228.887 295.963 229.599L293.547 231.875C293.262 232.159 293.12 232.301 292.978 232.586L288.998 237.849C288.998 237.849 286.866 241.548 288.998 241.69" fill="white"/>
<path d="M301.649 227.322L298.522 228.176C297.527 228.461 296.674 228.887 295.963 229.599L293.547 231.875C293.262 232.159 293.12 232.301 292.978 232.586L288.998 237.849C288.998 237.849 286.866 241.548 288.998 241.69" stroke="#263238" stroke-miterlimit="10" stroke-linecap="round" stroke-linejoin="round"/>
<path d="M392.343 174.831C391.775 187.491 392.912 202.712 393.765 213.808C393.907 215.515 392.912 216.938 391.206 217.507C384.951 219.356 369.457 223.624 356.805 225.189" stroke="#263238" stroke-miterlimit="10" stroke-linecap="round" stroke-linejoin="round"/>
<path d="M393.054 166.011C392.912 167.433 392.77 168.998 392.628 170.563" stroke="#263238" stroke-width="0.75" stroke-miterlimit="10" stroke-linecap="round" stroke-linejoin="round"/>
<path d="M397.887 152.781C396.324 154.204 395.044 156.764 394.191 160.178" stroke="#263238" stroke-width="0.75" stroke-miterlimit="10" stroke-linecap="round" stroke-linejoin="round"/>
<path d="M326.669 144.246C326.669 144.246 327.522 141.401 332.355 139.836C337.188 138.271 353.82 135.711 362.349 139.836C370.878 143.961 354.531 166.58 354.531 166.58L346.854 177.107L340.031 182.228L337.046 173.266L333.065 169.14C333.065 169.14 324.678 162.17 325.389 155.342C326.1 148.514 326.669 144.246 326.669 144.246Z" fill="white"/>
<path d="M368.604 143.677C367.324 138.983 361.212 137.702 361.212 137.702C332.07 132.723 325.958 143.392 325.958 143.392C319.987 159.894 325.958 173.266 325.958 173.266C325.958 173.266 334.203 169.852 335.624 173.266C337.046 176.68 339.605 184.077 339.605 184.077C339.605 184.077 345.291 181.232 349.84 175.257C354.388 169.283 364.908 175.257 364.908 175.257C371.731 163.308 368.604 143.677 368.604 143.677ZM361.496 143.392C350.266 178.814 340.315 180.379 340.315 180.379C337.046 167.291 334.203 170.136 329.654 162.028C326.1 155.484 327.237 147.233 327.948 144.246C328.09 143.535 328.517 142.823 329.227 142.539C340.457 136.849 354.104 138.983 359.79 140.121C361.212 140.405 361.923 141.97 361.496 143.392Z" fill="#55C787"/>
<path opacity="0.4" d="M368.604 143.677C367.324 138.983 361.212 137.702 361.212 137.702C332.07 132.723 325.958 143.392 325.958 143.392C319.987 159.894 325.958 173.266 325.958 173.266C325.958 173.266 334.203 169.852 335.624 173.266C337.046 176.68 339.605 184.077 339.605 184.077C339.605 184.077 345.291 181.232 349.84 175.257C354.388 169.283 364.908 175.257 364.908 175.257C371.731 163.308 368.604 143.677 368.604 143.677ZM361.496 143.392C350.266 178.814 340.315 180.379 340.315 180.379C337.046 167.291 334.203 170.136 329.654 162.028C326.1 155.484 327.237 147.233 327.948 144.246C328.09 143.535 328.517 142.823 329.227 142.539C340.457 136.849 354.104 138.983 359.79 140.121C361.212 140.405 361.923 141.97 361.496 143.392Z" fill="white"/>
<path d="M368.604 143.677C367.324 138.983 361.212 137.702 361.212 137.702C332.07 132.723 325.958 143.392 325.958 143.392C319.987 159.894 325.958 173.266 325.958 173.266C325.958 173.266 334.203 169.852 335.624 173.266C337.046 176.68 339.605 184.077 339.605 184.077C339.605 184.077 345.291 181.232 349.84 175.257C354.388 169.283 364.908 175.257 364.908 175.257C371.731 163.308 368.604 143.677 368.604 143.677ZM361.496 143.392C350.266 178.814 340.315 180.379 340.315 180.379C337.046 167.291 334.203 170.136 329.654 162.028C326.1 155.484 327.237 147.233 327.948 144.246C328.09 143.535 328.517 142.823 329.227 142.539C340.457 136.849 354.104 138.983 359.79 140.121C361.212 140.405 361.923 141.97 361.496 143.392Z" stroke="#263238" stroke-miterlimit="10" stroke-linecap="round" stroke-linejoin="round"/>
<path d="M320.982 89.478C320.982 89.478 295.821 94.4569 309.752 110.816C325.105 129.025 320.982 89.478 320.982 89.478Z" fill="#263238" stroke="#263238" stroke-miterlimit="10" stroke-linecap="round" stroke-linejoin="round"/>
<path d="M311.174 129.451C311.174 129.451 305.203 105.268 316.576 93.6034C327.948 81.9385 340.315 79.6625 349.555 85.3526C358.795 91.0428 362.633 105.268 361.212 112.665C359.79 120.063 360.501 146.38 347.849 157.191C335.198 168.145 327.379 165.442 318.992 150.505C313.306 140.69 310.747 137.987 311.174 129.451Z" fill="white" stroke="#263238" stroke-miterlimit="10" stroke-linecap="round" stroke-linejoin="round"/>
<path d="M355.099 124.615C355.099 124.615 345.575 115.084 342.59 103.988C339.605 92.8921 338.041 90.9006 327.095 96.4485C316.149 101.854 299.233 94.5992 303.64 80.8005C308.331 66.2905 322.546 85.0681 336.335 80.3737C350.124 75.6793 359.79 84.2146 359.79 96.733C359.79 96.733 368.035 104.841 359.79 125.611L355.099 124.615Z" fill="#263238" stroke="#263238" stroke-miterlimit="10" stroke-linecap="round" stroke-linejoin="round"/>
<path d="M352.114 123.05C352.114 123.05 354.531 109.82 361.212 110.958C367.893 112.239 363.06 131.728 355.241 129.594" fill="white"/>
<path d="M352.114 123.05C352.114 123.05 354.531 109.82 361.212 110.958C367.893 112.239 363.06 131.728 355.241 129.594" stroke="#263238" stroke-miterlimit="10" stroke-linecap="round" stroke-linejoin="round"/>
<path d="M320.129 127.602C320.129 127.602 317.429 139.836 318.424 141.97C319.277 144.104 327.379 142.397 327.379 142.397" fill="white"/>
<path d="M320.129 127.602C320.129 127.602 317.429 139.836 318.424 141.97C319.277 144.104 327.379 142.397 327.379 142.397" stroke="#263238" stroke-miterlimit="10" stroke-linecap="round" stroke-linejoin="round"/>
<path d="M328.517 147.802C328.517 147.802 334.913 150.363 340.457 141.97Z" fill="white"/>
<path d="M328.517 147.802C328.517 147.802 334.913 150.363 340.457 141.97" stroke="#263238" stroke-miterlimit="10" stroke-linecap="round" stroke-linejoin="round"/>
<path d="M315.865 128.598C316.149 129.736 315.865 130.732 315.154 130.874C314.586 131.016 313.875 130.163 313.59 129.025C313.306 127.887 313.59 126.891 314.301 126.749C314.87 126.606 315.581 127.46 315.865 128.598Z" fill="#263238"/>
<path d="M331.36 127.318C331.644 128.456 331.36 129.451 330.649 129.594C330.08 129.736 329.369 128.882 329.085 127.744C328.801 126.606 329.085 125.611 329.796 125.468C330.507 125.326 331.217 126.18 331.36 127.318Z" fill="#263238"/>
<path d="M319.134 128.029C319.419 131.301 316.149 134.146 311.885 134.715C307.62 135.142 303.782 132.866 303.498 129.594C303.213 126.322 306.625 124.899 310.889 124.473C315.154 124.188 318.85 124.899 319.134 128.029Z" stroke="#263238" stroke-miterlimit="10" stroke-linecap="round" stroke-linejoin="round"/>
<path d="M339.178 126.037C339.462 129.309 336.193 132.154 331.928 132.723C327.664 133.15 323.826 130.874 323.541 127.602C323.257 124.33 326.669 122.908 330.933 122.481C335.34 122.054 338.894 122.766 339.178 126.037Z" stroke="#263238" stroke-miterlimit="10" stroke-linecap="round" stroke-linejoin="round"/>
<path d="M319.134 128.029L323.541 127.602" stroke="#263238" stroke-miterlimit="10" stroke-linecap="round" stroke-linejoin="round"/>
<path d="M338.609 124.473L355.241 114.657" stroke="#263238" stroke-miterlimit="10" stroke-linecap="round" stroke-linejoin="round"/>
<path d="M358.084 139.552L358.795 141.543" stroke="#263238" stroke-miterlimit="10" stroke-linecap="round" stroke-linejoin="round"/>
<path d="M309.752 122.908C309.752 122.908 312.311 119.636 315.296 121.201Z" fill="white"/>
<path d="M309.752 122.908C309.752 122.908 312.311 119.636 315.296 121.201" stroke="#263238" stroke-miterlimit="10" stroke-linecap="round" stroke-linejoin="round"/>
<path d="M335.482 121.485C335.482 121.485 331.075 117.218 326.811 120.205Z" fill="white"/>
<path d="M335.482 121.485C335.482 121.485 331.075 117.218 326.811 120.205" stroke="#263238" stroke-miterlimit="10" stroke-linecap="round" stroke-linejoin="round"/>
<path d="M315.438 82.3653C322.12 84.4991 333.492 87.0597 342.732 84.3569C356.805 80.0892 352.114 96.0217 355.241 100.432" stroke="#7F7F7F" stroke-linecap="round" stroke-linejoin="round"/>
<path d="M309.61 80.2315C309.61 80.2315 310.747 80.6582 312.595 81.3695" stroke="#7F7F7F" stroke-linecap="round" stroke-linejoin="round"/>
<path d="M326.526 90.3316C327.237 90.047 328.09 89.7625 328.943 89.478" stroke="#7F7F7F" stroke-linecap="round" stroke-linejoin="round"/>
<path d="M311.174 88.4822C311.174 88.4822 314.159 93.1766 323.826 91.0428" stroke="#7F7F7F" stroke-linecap="round" stroke-linejoin="round"/>
<path d="M347.281 97.5865C347.849 101.57 349.413 107.544 353.251 112.808" stroke="#7F7F7F" stroke-linecap="round" stroke-linejoin="round"/>
<path d="M346.854 92.6076C346.854 92.6076 346.854 93.6034 346.997 95.1682" stroke="#7F7F7F" stroke-linecap="round" stroke-linejoin="round"/>
<path opacity="0.3" d="M359.506 245.104C358.369 246.1 359.08 247.949 360.501 248.092C370.168 248.092 396.039 248.234 405.99 247.665C418.5 246.954 408.975 233.439 398.882 238.561C389.785 243.255 370.452 235.289 359.506 245.104Z" fill="black"/>
<path d="M251.185 231.875C251.185 231.875 257.013 216.369 271.513 218.787C286.297 221.206 274.925 233.439 267.959 234.577C268.101 234.577 266.964 230.31 251.185 231.875Z" fill="white" stroke="#263238" stroke-miterlimit="10" stroke-linecap="round" stroke-linejoin="round"/>
<path d="M238.818 240.552C236.828 242.544 232.279 242.686 235.406 238.418C238.818 233.866 242.656 232.301 245.357 231.021C252.322 227.892 255.023 228.603 261.278 227.18C267.533 225.758 268.67 228.318 270.944 229.599C276.062 232.444 277.341 232.87 278.621 235.716C279.9 238.561 281.322 242.259 277.341 242.259C273.645 242.259 273.361 236.142 269.949 236.427C266.395 236.711 264.547 242.259 262.131 242.259C259.714 242.259 263.268 242.259 261.136 242.259C259.004 242.259 258.861 240.552 260.141 237.707C261.42 234.862 262.842 232.444 262.842 232.444C262.842 232.444 259.714 233.866 258.008 237.423C256.303 241.121 256.018 242.544 252.891 242.544C249.764 242.544 249.906 240.268 253.033 235.004C253.033 235.004 250.19 236.569 248.626 239.414C247.063 242.259 246.352 242.117 244.22 242.117C241.519 242.117 241.803 237.707 246.494 234.862C246.636 235.147 245.499 233.866 238.818 240.552Z" fill="white" stroke="#263238" stroke-miterlimit="10" stroke-linecap="round" stroke-linejoin="round"/>
<path d="M257.156 230.168C257.156 230.168 255.308 230.025 254.17 233.155Z" fill="white"/>
<path d="M257.156 230.168C257.156 230.168 255.308 230.025 254.17 233.155" stroke="#263238" stroke-width="0.75" stroke-miterlimit="10" stroke-linecap="round" stroke-linejoin="round"/>
<path d="M329.938 246.669H287.576C286.723 246.669 286.013 245.958 286.013 245.104V241.548L331.502 242.97V245.104C331.502 245.958 330.791 246.669 329.938 246.669Z" fill="#858585" stroke="#263238" stroke-miterlimit="10" stroke-linecap="round" stroke-linejoin="round"/>
<path d="M281.322 246.669H196.172C194.75 246.669 193.471 245.673 193.044 244.251L174.707 184.931C174.138 183.366 175.275 181.801 176.839 181.801H261.989C263.41 181.801 264.69 182.797 265.116 184.219L283.454 243.539C283.88 245.247 282.885 246.669 281.322 246.669Z" fill="#999999" stroke="#263238" stroke-miterlimit="10" stroke-linecap="round" stroke-linejoin="round"/>
<path d="M287.292 243.539L268.954 184.219C268.528 182.797 267.248 181.801 265.827 181.801H261.989C263.41 181.801 264.69 182.797 265.116 184.219L283.454 243.539C284.023 245.104 282.885 246.669 281.322 246.669H285.16C286.723 246.669 287.719 245.247 287.292 243.539Z" fill="#858585" stroke="#263238" stroke-miterlimit="10" stroke-linecap="round" stroke-linejoin="round"/>
<path d="M234.269 214.235C234.695 217.08 232.563 219.499 229.72 219.499C226.877 219.499 224.176 217.08 223.749 214.235C223.323 211.39 225.455 208.972 228.298 208.972C231.141 208.972 233.985 211.248 234.269 214.235Z" fill="white" stroke="#263238" stroke-miterlimit="10" stroke-linecap="round" stroke-linejoin="round"/>
<path d="M156.795 470.293H151.393L149.972 260.895H156.795V470.293Z" fill="#858585" stroke="#263238" stroke-miterlimit="10" stroke-linecap="round" stroke-linejoin="round"/>
<path d="M162.055 470.293H156.795V260.895H163.476L162.055 470.293Z" fill="#999999" stroke="#263238" stroke-miterlimit="10" stroke-linecap="round" stroke-linejoin="round"/>
<path d="M457.734 248.092H96.38V260.895H457.734V248.092Z" fill="#263238" stroke="#263238" stroke-miterlimit="10" stroke-linecap="round" stroke-linejoin="round"/>
<path d="M533.217 248.092H452.332V260.895H533.217V248.092Z" fill="#858585" stroke="#263238" stroke-miterlimit="10" stroke-linecap="round" stroke-linejoin="round"/>
<path d="M474.082 260.895H114.86V282.09H474.082V260.895Z" fill="#55C787" stroke="#263238" stroke-miterlimit="10"/>
<path d="M515.875 260.895H474.082V282.09H515.875V260.895Z" fill="#55C787"/>
<path opacity="0.3" d="M474.253 282.002H516.046V260.806H474.253V282.002Z" fill="black"/>
<path d="M515.875 260.895H474.082V282.09H515.875V260.895Z" stroke="#263238" stroke-miterlimit="10"/>
<path d="M474.082 470.293H468.822L467.4 260.895H474.082V470.293Z" fill="#858585" stroke="#263238" stroke-miterlimit="10" stroke-linecap="round" stroke-linejoin="round"/>
<path d="M479.483 470.293H474.082V260.895H480.905L479.483 470.293Z" fill="#999999" stroke="#263238" stroke-miterlimit="10" stroke-linecap="round" stroke-linejoin="round"/>
<path d="M114.86 470.293H109.6L108.179 260.895H114.86V470.293Z" fill="#858585" stroke="#263238" stroke-miterlimit="10" stroke-linecap="round" stroke-linejoin="round"/>
<path d="M120.12 470.293H114.86V260.895H121.541L120.12 470.293Z" fill="#999999" stroke="#263238" stroke-miterlimit="10" stroke-linecap="round" stroke-linejoin="round"/>
<path d="M516.017 470.293H510.757L509.336 260.895H516.017V470.293Z" fill="#858585" stroke="#263238" stroke-miterlimit="10" stroke-linecap="round" stroke-linejoin="round"/>
<path d="M521.277 470.293H516.017V260.895H522.698L521.277 470.293Z" fill="#999999" stroke="#263238" stroke-miterlimit="10" stroke-linecap="round" stroke-linejoin="round"/>
</g>
<defs>
<clipPath id="clip0_129_11592">
<rect width="606" height="472" fill="white"/>
</clipPath>
</defs>
</svg>
